<svg width="394" height="353" viewBox="0 0 394 353" fill="none" xmlns="http://www.w3.org/2000/svg">
<g clip-path="url(#clip0_2_23781)">
<path d="M101.9 208.4C101.6 208.4 101.3 208.3 101.1 208.2L69 186.4C68.3 185.9 68.1 185 68.6 184.3C69.1 183.6 70 183.4 70.7 183.9L102.8 205.6C103.5 206.1 103.7 207 103.2 207.7C102.8 208.2 102.4 208.4 101.9 208.4Z" fill="#FF6700"/>
<path d="M61.0996 179.4C66.1996 180.6 73.0996 181.4 78.0996 180.7L70.9996 186L68.8996 194.6C67.5996 189.6 64.1996 183.6 61.0996 179.4Z" fill="#FF6700"/>
<path d="M69.8996 270.5C69.4996 270.5 69.0996 270.3 68.7996 270C68.1996 269.4 68.1996 268.5 68.7996 267.9L97.7996 239.6C98.3996 239 99.2996 239 99.8996 239.6C100.5 240.2 100.5 241.1 99.8996 241.7L70.8996 270C70.5996 270.4 70.2996 270.5 69.8996 270.5Z" fill="#FF6700"/>
<path d="M101.6 183.6C101.3 183.6 101 183.5 100.8 183.4L69.1004 162.3C68.4004 161.9 68.2004 160.9 68.6004 160.2C69.0004 159.5 70.0003 159.3 70.7004 159.7L102.4 180.8C103.1 181.2 103.3 182.2 102.9 182.9C102.6 183.4 102.1 183.6 101.6 183.6Z" fill="#FF6700"/>
<path d="M61.0996 155.3C66.1996 156.4 73.0996 157.1 78.0996 156.4L71.0996 161.7L69.1996 170.3C67.6996 165.5 64.1996 159.5 61.0996 155.3Z" fill="#FF6700"/>
<path d="M69.8996 293.5C69.4996 293.5 69.0996 293.4 68.7996 293.1C68.1996 292.5 68.1996 291.6 68.7996 291L96.9996 262.5C97.5996 261.9 98.4996 261.9 99.0996 262.5C99.6996 263.1 99.6996 264 99.0996 264.6L70.9996 293C70.6996 293.3 70.2996 293.5 69.8996 293.5Z" fill="#FF6700"/>
<path d="M101.6 159C101.3 159 101 158.9 100.8 158.8L69.1004 137.8C68.4004 137.4 68.2004 136.4 68.6004 135.7C69.0004 135 70.0003 134.8 70.7004 135.2L102.4 156.2C103.1 156.6 103.3 157.6 102.9 158.3C102.6 158.8 102.1 159 101.6 159Z" fill="#FF6700"/>
<path d="M61.0996 130.9C66.2996 132 73.0996 132.6 78.0996 131.9L71.0996 137.3L69.1996 145.9C67.6996 141 64.1996 135.1 61.0996 130.9Z" fill="#FF6700"/>
<path d="M69.8992 316.5C69.4992 316.5 69.0992 316.4 68.8992 316.1C68.2992 315.5 68.2992 314.6 68.8992 314L97.2992 284.8C97.8992 284.2 98.7992 284.2 99.3992 284.8C99.9992 285.4 99.9992 286.3 99.3992 286.9L70.9992 316C70.6992 316.3 70.2992 316.5 69.8992 316.5Z" fill="#FF6700"/>
<path d="M112.3 232.5C111.9 232.5 111.5 232.3 111.2 232C110.6 231.4 110.6 230.5 111.2 229.9L113.7 227.5C114.3 226.9 115.2 226.9 115.8 227.5C116.4 228.1 116.4 229 115.8 229.6L113.3 232C113.1 232.3 112.7 232.5 112.3 232.5Z" fill="#FF6700"/>
<path d="M121.2 223.9C120.8 223.9 120.4 223.7 120.1 223.4C119.5 222.8 119.5 221.9 120.1 221.3L121.3 220.2L119.9 219.3C119.2 218.8 119 217.9 119.5 217.2C120 216.5 120.9 216.3 121.6 216.8L124.5 218.7C124.9 219 125.1 219.4 125.2 219.8C125.2 220.3 125.1 220.7 124.8 221L122.3 223.4C121.9 223.7 121.6 223.9 121.2 223.9Z" fill="#FF6700"/>
<path d="M115.2 215.8C114.9 215.8 114.6 215.7 114.4 215.6L111.5 213.7C110.8 213.2 110.6 212.3 111.1 211.6C111.6 210.9 112.5 210.7 113.2 211.2L116.1 213.1C116.8 213.6 117 214.5 116.5 215.2C116.1 215.5 115.6 215.8 115.2 215.8Z" fill="#FF6700"/>
<path d="M110.999 253.8C110.599 253.8 110.199 253.7 109.899 253.4C109.299 252.8 109.299 251.9 109.899 251.3L112.399 248.8C112.999 248.2 113.899 248.2 114.499 248.8C115.099 249.4 115.099 250.3 114.499 250.9L111.999 253.4C111.799 253.7 111.399 253.8 110.999 253.8Z" fill="#FF6700"/>
<path d="M118.4 246.4C118 246.4 117.6 246.3 117.3 246C116.7 245.4 116.7 244.5 117.3 243.9L122.2 238.9C122.8 238.3 123.7 238.3 124.3 238.9C124.9 239.5 124.9 240.4 124.3 241L119.4 246C119.2 246.2 118.8 246.4 118.4 246.4ZM128.3 236.5C127.9 236.5 127.5 236.4 127.2 236.1C126.6 235.5 126.6 234.6 127.2 234L132.1 229C132.7 228.4 133.6 228.4 134.2 229C134.8 229.6 134.8 230.5 134.2 231.1L129.3 236.1C129 236.3 128.6 236.5 128.3 236.5ZM138.1 226.5C137.7 226.5 137.3 226.4 137 226.1C136.4 225.5 136.4 224.6 137 224L141.9 219C142.5 218.4 143.4 218.4 144 219C144.6 219.6 144.6 220.5 144 221.1L139.1 226.1C138.9 226.4 138.5 226.5 138.1 226.5Z" fill="#FF6700"/>
<path d="M147.898 216.6C147.498 216.6 147.098 216.5 146.798 216.2C146.198 215.6 146.198 214.7 146.798 214.1L147.998 212.9L146.598 212C145.898 211.6 145.698 210.6 146.098 209.9C146.498 209.2 147.498 209 148.198 209.4L151.098 211.3C151.498 211.5 151.698 211.9 151.798 212.4C151.798 212.9 151.698 213.3 151.398 213.6L148.898 216.1C148.698 216.5 148.298 216.6 147.898 216.6Z" fill="#FF6700"/>
<path d="M140.799 208C140.499 208 140.199 207.9 139.999 207.8L133.299 203.5C132.599 203.1 132.399 202.1 132.799 201.4C133.199 200.7 134.199 200.5 134.899 200.9L141.599 205.2C142.299 205.6 142.499 206.6 142.099 207.3C141.699 207.7 141.299 208 140.799 208ZM127.399 199.4C127.099 199.4 126.799 199.3 126.599 199.2L119.899 194.9C119.199 194.5 118.999 193.5 119.399 192.8C119.799 192.1 120.799 191.9 121.499 192.3L128.199 196.6C128.899 197 129.099 198 128.699 198.7C128.299 199.1 127.899 199.4 127.399 199.4Z" fill="#FF6700"/>
<path d="M114 190.8C113.7 190.8 113.4 190.7 113.2 190.6L110.3 188.7C109.6 188.3 109.4 187.3 109.8 186.6C110.2 185.9 111.2 185.7 111.9 186.1L114.8 188C115.5 188.4 115.7 189.4 115.3 190.1C115 190.5 114.5 190.8 114 190.8Z" fill="#FF6700"/>
<path d="M111.001 276C110.601 276 110.201 275.9 110.001 275.6C109.401 275 109.401 274.1 110.001 273.5L112.401 271C113.001 270.4 113.901 270.4 114.501 271C115.101 271.6 115.101 272.5 114.501 273.1L112.101 275.6C111.801 275.8 111.401 276 111.001 276Z" fill="#FF6700"/>
<path d="M118.3 268.5C117.9 268.5 117.5 268.4 117.3 268.1C116.7 267.5 116.7 266.6 117.3 266L122.1 261.1C122.7 260.5 123.6 260.5 124.2 261.1C124.8 261.7 124.8 262.6 124.2 263.2L119.4 268.1C119.1 268.4 118.7 268.5 118.3 268.5ZM127.9 258.7C127.5 258.7 127.1 258.6 126.9 258.3C126.3 257.7 126.3 256.8 126.9 256.2L131.7 251.3C132.3 250.7 133.2 250.7 133.8 251.3C134.4 251.9 134.4 252.8 133.8 253.4L129 258.3C128.7 258.5 128.3 258.7 127.9 258.7ZM137.5 248.8C137.1 248.8 136.7 248.7 136.5 248.4C135.9 247.8 135.9 246.9 136.5 246.3L141.3 241.4C141.9 240.8 142.8 240.8 143.4 241.4C144 242 144 242.9 143.4 243.5L138.6 248.4C138.3 248.7 137.9 248.8 137.5 248.8ZM147.1 238.9C146.7 238.9 146.3 238.8 146.1 238.5C145.5 237.9 145.5 237 146.1 236.4L150.9 231.5C151.5 230.9 152.4 230.9 153 231.5C153.6 232.1 153.6 233 153 233.6L148.2 238.5C147.9 238.8 147.5 238.9 147.1 238.9ZM156.7 229.1C156.3 229.1 155.9 229 155.7 228.7C155.1 228.1 155.1 227.2 155.7 226.6L160.5 221.7C161.1 221.1 162 221.1 162.6 221.7C163.2 222.3 163.2 223.2 162.6 223.8L157.8 228.7C157.5 228.9 157.1 229.1 156.7 229.1ZM166.4 219.2C166 219.2 165.6 219.1 165.4 218.8C164.8 218.2 164.8 217.3 165.4 216.7L170.2 211.8C170.8 211.2 171.7 211.2 172.3 211.8C172.9 212.4 172.9 213.3 172.3 213.9L167.5 218.8C167.1 219.1 166.8 219.2 166.4 219.2Z" fill="#FF6700"/>
<path d="M176 209.4C175.6 209.4 175.2 209.3 175 209C174.4 208.4 174.4 207.5 175 206.9L176.2 205.7L174.8 204.8C174.1 204.4 173.9 203.4 174.3 202.7C174.7 202 175.7 201.8 176.4 202.2L179.4 204.1C179.8 204.3 180 204.7 180.1 205.2C180.2 205.6 180 206.1 179.7 206.4L177.3 208.9C176.8 209.2 176.4 209.4 176 209.4Z" fill="#FF6700"/>
<path d="M169.9 201.4C169.6 201.4 169.3 201.3 169.1 201.2L163.5 197.7C162.8 197.3 162.6 196.3 163 195.6C163.4 194.9 164.4 194.7 165.1 195.1L170.7 198.6C171.4 199 171.6 200 171.2 200.7C170.9 201.2 170.4 201.4 169.9 201.4ZM158.7 194.4C158.4 194.4 158.1 194.3 157.9 194.2L152.3 190.7C151.6 190.3 151.4 189.3 151.8 188.6C152.2 187.9 153.2 187.7 153.9 188.1L159.5 191.6C160.2 192 160.4 193 160 193.7C159.7 194.1 159.2 194.4 158.7 194.4ZM147.5 187.3C147.2 187.3 146.9 187.2 146.7 187.1L141.1 183.6C140.4 183.2 140.2 182.2 140.6 181.5C141 180.8 142 180.6 142.7 181L148.3 184.5C149 184.9 149.2 185.9 148.8 186.6C148.5 187 148 187.3 147.5 187.3ZM136.3 180.2C136 180.2 135.7 180.1 135.5 180L129.9 176.5C129.2 176.1 129 175.1 129.4 174.4C129.8 173.7 130.8 173.5 131.5 173.9L137.1 177.4C137.8 177.8 138 178.8 137.6 179.5C137.3 179.9 136.8 180.2 136.3 180.2ZM125.2 173.1C124.9 173.1 124.6 173 124.4 172.9L118.8 169.4C118.1 169 117.9 168 118.3 167.3C118.7 166.6 119.7 166.4 120.4 166.8L126 170.3C126.7 170.7 126.9 171.7 126.5 172.4C126.2 172.8 125.7 173.1 125.2 173.1Z" fill="#FF6700"/>
<path d="M114 166C113.7 166 113.4 165.9 113.2 165.8L110.2 163.9C109.5 163.5 109.3 162.5 109.7 161.8C110.1 161.1 111.1 160.9 111.8 161.3L114.8 163.2C115.5 163.6 115.7 164.6 115.3 165.3C115 165.7 114.5 166 114 166Z" fill="#FF6700"/>
<path fill-rule="evenodd" clip-rule="evenodd" d="M254.381 107.661C254.955 108.259 254.935 109.208 254.338 109.782L251.838 112.182C251.24 112.756 250.29 112.736 249.717 112.139C249.143 111.541 249.162 110.592 249.76 110.018L252.26 107.618C252.858 107.044 253.807 107.064 254.381 107.661Z" fill="#FFAA00"/>
<path fill-rule="evenodd" clip-rule="evenodd" d="M246.879 114.859C247.454 115.456 247.437 116.405 246.84 116.98L244.44 119.293C243.843 119.867 242.894 119.85 242.319 119.253C241.744 118.657 241.762 117.707 242.358 117.132L244.758 114.82C245.355 114.245 246.305 114.263 246.879 114.859ZM239.679 121.797C240.254 122.393 240.237 123.343 239.64 123.918L234.84 128.543C234.243 129.117 233.294 129.1 232.719 128.503C232.144 127.907 232.162 126.957 232.758 126.382L237.558 121.757C238.155 121.182 239.105 121.2 239.679 121.797ZM230.079 131.047C230.654 131.643 230.637 132.593 230.04 133.168L225.24 137.793C224.643 138.367 223.694 138.35 223.119 137.753C222.544 137.157 222.562 136.207 223.158 135.632L227.958 131.007C228.555 130.432 229.505 130.45 230.079 131.047ZM220.479 140.297C221.054 140.893 221.037 141.843 220.44 142.418L215.64 147.043C215.043 147.617 214.094 147.6 213.519 147.003C212.944 146.407 212.962 145.457 213.558 144.882L218.358 140.257C218.955 139.682 219.905 139.7 220.479 140.297ZM210.879 149.547C211.454 150.143 211.437 151.093 210.84 151.668L206.04 156.293C205.443 156.867 204.494 156.85 203.919 156.253C203.344 155.657 203.362 154.707 203.958 154.132L208.758 149.507C209.355 148.932 210.305 148.95 210.879 149.547ZM201.279 158.797C201.854 159.393 201.837 160.343 201.24 160.918L196.44 165.543C195.843 166.117 194.894 166.1 194.319 165.503C193.744 164.907 193.762 163.957 194.358 163.382L199.158 158.757C199.755 158.182 200.705 158.2 201.279 158.797ZM191.679 168.047C192.254 168.643 192.237 169.593 191.64 170.168L189.24 172.48C188.643 173.055 187.694 173.037 187.119 172.441C186.544 171.844 186.562 170.895 187.158 170.32L189.558 168.007C190.155 167.432 191.105 167.45 191.679 168.047Z" fill="#FFAA00"/>
<path fill-rule="evenodd" clip-rule="evenodd" d="M186.781 172.761C187.355 173.359 187.336 174.308 186.738 174.882L184.238 177.282C183.64 177.856 182.691 177.836 182.117 177.239C181.543 176.641 181.563 175.692 182.16 175.118L184.66 172.718C185.258 172.144 186.208 172.164 186.781 172.761Z" fill="#FFAA00"/>
<path fill-rule="evenodd" clip-rule="evenodd" d="M250.982 131.261C251.556 131.859 251.537 132.808 250.939 133.382L248.439 135.782C247.842 136.356 246.892 136.336 246.318 135.739C245.745 135.141 245.764 134.192 246.362 133.618L248.862 131.218C249.459 130.644 250.409 130.664 250.982 131.261Z" fill="#FFAA00"/>
<path fill-rule="evenodd" clip-rule="evenodd" d="M243.28 138.659C243.855 139.256 243.837 140.205 243.24 140.78L240.785 143.145C240.189 143.72 239.239 143.702 238.664 143.106C238.09 142.509 238.107 141.559 238.704 140.985L241.159 138.62C241.756 138.045 242.705 138.063 243.28 138.659ZM235.915 145.754C236.49 146.351 236.472 147.3 235.875 147.875L230.965 152.605C230.369 153.18 229.419 153.162 228.844 152.566C228.27 151.969 228.287 151.019 228.884 150.445L233.794 145.715C234.391 145.14 235.34 145.158 235.915 145.754ZM226.095 155.214C226.67 155.811 226.652 156.76 226.055 157.335L221.145 162.065C220.549 162.64 219.599 162.622 219.024 162.026C218.45 161.429 218.467 160.479 219.064 159.905L223.974 155.175C224.571 154.6 225.52 154.618 226.095 155.214ZM216.275 164.674C216.85 165.271 216.832 166.22 216.235 166.795L211.325 171.525C210.729 172.1 209.779 172.082 209.204 171.486C208.63 170.889 208.647 169.939 209.244 169.365L214.154 164.635C214.751 164.06 215.7 164.078 216.275 164.674ZM206.455 174.134C207.03 174.731 207.012 175.68 206.415 176.255L201.505 180.985C200.909 181.56 199.959 181.542 199.384 180.946C198.81 180.349 198.827 179.399 199.424 178.825L204.334 174.095C204.931 173.52 205.88 173.538 206.455 174.134ZM196.635 183.594C197.21 184.191 197.192 185.14 196.595 185.715L194.14 188.08C193.544 188.655 192.594 188.637 192.019 188.041C191.445 187.444 191.462 186.494 192.059 185.92L194.514 183.555C195.111 182.98 196.06 182.998 196.635 183.594Z" fill="#FFAA00"/>
<path fill-rule="evenodd" clip-rule="evenodd" d="M191.702 188.483C192.264 189.091 192.226 190.04 191.617 190.602L189.017 193.002C188.409 193.564 187.46 193.526 186.898 192.917C186.336 192.309 186.374 191.36 186.983 190.798L189.583 188.398C190.191 187.836 191.14 187.874 191.702 188.483Z" fill="#FFAA00"/>
<path fill-rule="evenodd" clip-rule="evenodd" d="M246.383 156.861C246.957 157.459 246.937 158.408 246.34 158.982L243.84 161.382C243.242 161.956 242.292 161.936 241.719 161.339C241.145 160.741 241.164 159.792 241.762 159.218L244.262 156.818C244.86 156.244 245.809 156.263 246.383 156.861Z" fill="#FFAA00"/>
<path fill-rule="evenodd" clip-rule="evenodd" d="M238.579 164.359C239.154 164.955 239.137 165.904 238.541 166.48L236.078 168.855C235.482 169.43 234.533 169.412 233.957 168.816C233.382 168.22 233.4 167.27 233.996 166.695L236.458 164.32C237.055 163.745 238.004 163.762 238.579 164.359ZM231.192 171.484C231.767 172.08 231.75 173.029 231.153 173.605L226.228 178.355C225.632 178.93 224.683 178.912 224.107 178.316C223.532 177.72 223.55 176.77 224.146 176.195L229.071 171.445C229.667 170.87 230.617 170.887 231.192 171.484ZM221.342 180.984C221.917 181.58 221.9 182.529 221.303 183.105L216.378 187.855C215.782 188.43 214.833 188.412 214.257 187.816C213.682 187.22 213.7 186.27 214.296 185.695L219.221 180.945C219.817 180.37 220.767 180.387 221.342 180.984ZM211.492 190.484C212.067 191.08 212.05 192.029 211.453 192.605L206.528 197.355C205.932 197.93 204.983 197.912 204.407 197.316C203.832 196.72 203.85 195.77 204.446 195.195L209.371 190.445C209.967 189.87 210.917 189.887 211.492 190.484ZM201.642 199.984C202.217 200.58 202.2 201.529 201.603 202.105L199.141 204.48C198.545 205.055 197.595 205.037 197.02 204.441C196.445 203.845 196.462 202.895 197.058 202.32L199.521 199.945C200.117 199.37 201.067 199.387 201.642 199.984Z" fill="#FFAA00"/>
<path fill-rule="evenodd" clip-rule="evenodd" d="M196.482 204.861C197.056 205.459 197.037 206.408 196.439 206.982L193.939 209.382C193.342 209.956 192.392 209.936 191.818 209.339C191.245 208.741 191.264 207.792 191.862 207.218L194.362 204.818C194.959 204.244 195.909 204.263 196.482 204.861Z" fill="#FFAA00"/>
<path d="M253.998 256.2L253.898 256L288.798 235.8L288.898 236L253.998 256.2Z" fill="#00CCCC"/>
<path d="M290.099 236.8L288.799 236L288.899 235.8L290.299 236.6L290.099 236.8Z" fill="#00CCCC"/>
<path d="M290.598 237.1L290.098 236.8L290.298 236.6H290.398L290.698 236.8L290.598 237.1Z" fill="#00CCCC"/>
<path d="M253.998 254.3L253.898 254.1L287.098 234.8L287.298 235.1L253.998 254.3Z" fill="#00CCCC"/>
<path d="M288.498 235.9L287.098 235.1L287.298 234.8L288.598 235.6L288.498 235.9Z" fill="#00CCCC"/>
<path d="M253.998 255.8L253.898 255.6L288.498 235.6L288.598 235.9L253.998 255.8Z" fill="#00CCCC"/>
<path d="M288.898 236.1L288.498 235.9L288.598 235.6L289.098 235.9L288.898 236.1Z" fill="#00CCCC"/>
<path d="M290.598 237.1L290.098 236.8L290.298 236.6H290.398L290.698 236.8L290.598 237.1Z" fill="#00DD00"/>
<path d="M290.398 127.6H290.098V129.9H290.398V127.6Z" fill="#00DD00"/>
<path d="M290.398 234.6H290.098V236.7H290.398V234.6Z" fill="#00DD00"/>
<path d="M290.798 127H290.498V128.1H290.798V127Z" fill="#00DD00"/>
<path d="M290.798 235.7H290.498V236.9H290.798V235.7Z" fill="#00DD00"/>
<path d="M290.099 236.8L288.799 236L288.899 235.8L290.299 236.6L290.099 236.8Z" fill="#00DD00"/>
<path d="M288.999 129.8H288.699V235.9H288.999V129.8Z" fill="#00DD00"/>
<path d="M290.798 236.7H290.498V237H290.798V236.7Z" fill="#00DD00"/>
<path d="M287.398 131.8H287.098V235H287.398V131.8Z" fill="#00DD00"/>
<path d="M288.498 235.9L287.098 235.1L287.298 234.8L288.598 235.6L288.498 235.9Z" fill="#00DD00"/>
<path d="M288.698 233.6H288.398V235.7H288.698V233.6Z" fill="#00DD00"/>
<path d="M288.898 236.1L288.498 235.9L288.598 235.6L289.098 235.9L288.898 236.1Z" fill="#00DD00"/>
<path d="M211.998 289C212.098 289.1 212.198 289.1 212.298 289.2C212.398 289.2 212.498 289.3 212.598 289.4C212.698 289.4 212.698 289.5 212.798 289.5C212.898 289.5 212.898 289.6 212.998 289.6C212.998 289.6 213.098 289.6 213.098 289.7H213.198C213.198 289.7 213.198 289.7 213.298 289.7H213.398H213.498C213.598 289.7 213.598 289.6 213.698 289.6C241.398 273.6 269.198 257.6 296.898 241.6C296.898 171.4 296.898 101.1 296.898 30.9001C296.898 30.8001 296.898 30.8001 296.898 30.7001V30.6001C296.898 30.6001 296.898 30.5001 296.798 30.5001C296.798 30.5001 296.798 30.5001 296.698 30.4001H296.598C296.598 30.4001 296.498 30.4001 296.498 30.3001C296.398 30.3001 296.398 30.2001 296.298 30.2001C296.198 30.2001 296.198 30.1001 296.098 30.1001C295.998 30.1001 295.898 30.0001 295.798 29.9001C295.698 29.8001 295.598 29.8001 295.498 29.7001C295.398 29.5001 295.298 29.3001 295.198 29.1001C297.098 25.9001 298.198 23.9001 300.098 20.6001V243.4L206.398 297.5V75.1001C208.598 76.4001 209.798 76.7001 211.998 78.0001V289C211.798 289.1 212.198 289 211.998 289Z" fill="url(#paint0_linear_2_23781)"/>
<path d="M297.1 21.8L296.6 22.1C296.1 21.8001 296.1 21.8 295.6 21.5C296.1 20.6 296.6 19.7 297.1 18.8V21.8Z" fill="url(#paint1_linear_2_23781)"/>
<path d="M109.898 128.7L295.498 21.5C295.998 21.8 295.998 21.8 296.498 22.1L205.798 74.4L110.998 129.3C110.498 129 110.498 129 109.898 128.7Z" fill="url(#paint2_linear_2_23781)"/>
<path d="M294.998 17.7001L201.298 71.8001L106.398 126.6L105.898 126.3L200.798 71.5001L291.398 19.2001L294.498 17.4001L294.998 17.7001Z" fill="#C8E9FF"/>
<path d="M103.299 124.9L288.899 17.7002C289.499 18.1002 289.999 18.3002 290.399 18.6002C290.699 18.8002 290.999 19.0002 291.399 19.2002L200.699 71.5002L105.799 126.3C105.399 126 103.799 125.2 103.299 124.9Z" fill="url(#paint3_linear_2_23781)"/>
<path d="M287.999 46.6001V236.4L222.799 274.1L224.299 269.1L284.399 234.4V50.5001L287.999 46.6001Z" fill="url(#paint4_linear_2_23781)"/>
<path d="M284.398 50.4001V234.3C284.098 234.1 283.698 233.9 283.398 233.7V52.2001C283.698 51.6001 284.098 51.0001 284.398 50.4001Z" fill="#4F6A73"/>
<path d="M273.799 57.7001L225.299 85.7001C225.199 85.6001 225.099 85.6001 224.999 85.5001C224.799 85.4001 224.499 85.2001 224.299 85.1001L284.399 50.4001C284.099 51.0001 283.699 51.6001 283.399 52.2001L282.699 52.6001L274.699 57.2001L273.999 57.6001L273.799 57.7001Z" fill="#4F6A73"/>
<path d="M284.399 234.4L224.299 269.1C224.599 268.5 224.999 267.9 225.299 267.3L283.299 233.8C283.699 234 284.099 234.2 284.399 234.4Z" fill="#4F6A73"/>
<path opacity="0.3" d="M283.398 52.2002V233.8L225.398 267.3V257.3L274.698 228.8V57.2002L282.698 52.6002L283.398 52.2002Z" fill="#A7D0ED"/>
<path d="M274.7 57.2002V228.8C274.3 228.6 274.4 228.6 274 228.4V57.6002L274.7 57.2002Z" fill="#4F6A73"/>
<path d="M274.699 228.8L225.299 257.3V256.5L273.999 228.4C274.399 228.6 274.299 228.6 274.699 228.8Z" fill="#4F6A73"/>
<path d="M273.899 228.3C273.799 228.3 273.799 228.3 273.899 228.3C273.799 228.3 273.799 228.3 273.899 228.3C273.899 172 273.899 114 273.899 57.7001L274.099 57.6001V228.4C273.999 228.4 273.999 228.4 273.899 228.3Z" fill="url(#paint5_linear_2_23781)"/>
<path opacity="0.3" d="M225.398 85.7002L273.898 57.7002C273.898 114 273.898 172 273.898 228.2C258.298 237.2 241.098 247.2 225.398 256.2V85.7002Z" fill="#A7D0ED"/>
<path d="M273.999 228.4L225.299 256.5V256.3C240.899 247.3 258.099 237.3 273.799 228.3C273.899 228.3 273.899 228.3 273.999 228.4Z" fill="url(#paint6_linear_2_23781)"/>
<path opacity="0.3" d="M192.1 94V289.3L121 330.4V320.4L183.4 284.3V99.1L191.4 94.5L192.1 94Z" fill="#A7D0ED"/>
<path d="M183.399 99.1001V284.4C182.999 284.2 183.099 284.2 182.699 284V99.4001L183.399 99.1001Z" fill="#4F6A73"/>
<path d="M183.4 284.3L121 320.3V319.5L182.7 283.9C183.1 284.1 183 284.1 183.4 284.3Z" fill="#4F6A73"/>
<path d="M182.6 283.8C182.6 227.5 182.6 155.8 182.6 99.4999L182.8 99.3999V283.9C182.7 283.9 182.7 283.9 182.6 283.8C182.7 283.9 182.7 283.9 182.6 283.8C182.6 283.9 182.6 283.9 182.6 283.8Z" fill="url(#paint7_linear_2_23781)"/>
<path opacity="0.3" d="M121 135.1L182.5 99.6001C182.5 155.9 182.5 227.6 182.5 283.8C166.9 292.8 136.6 310.3 121 319.3V135.1Z" fill="#A7D0ED"/>
<path d="M182.8 283.9L121 319.6V319.4C136.6 310.4 166.9 292.9 182.5 283.9C182.7 283.9 182.7 283.9 182.8 283.9C182.7 283.9 182.7 283.9 182.8 283.9Z" fill="url(#paint8_linear_2_23781)"/>
<path d="M225.098 85.5001C224.898 85.4001 224.598 85.2001 224.398 85.1001V178.6V180.8V267.8V269C224.698 268.4 225.098 267.8 225.398 267.2V266.4V257.2V256.4V256.2V181.6V180.4V85.7001C225.298 85.7001 225.198 85.6001 225.098 85.5001Z" fill="#4F6A73"/>
<path d="M299.6 20.4001L297.1 21.9001L296.6 22.2001L205.9 74.5001L111 129.3L111.5 129.6L120.8 135L184.4 98.3001L184.6 98.2001L197 91.0001C198.5 88.4001 200 85.9001 201.4 83.3001C203 80.5001 204.7 78.0001 206.3 75.1001L209.7 77.0001L211.9 78.0001L295.4 29.8001C297.3 26.6001 298.1 23.9001 300 20.7001L299.6 20.4001Z" fill="url(#paint9_linear_2_23781)"/>
<path d="M184.699 98.1001L184.499 98.2001L120.799 135V336.2C121.099 333.6 120.999 331.6 120.999 331.6C120.999 331.3 120.999 331.1 120.999 330.8C120.999 327.8 120.999 324.8 120.999 321.8C120.999 321.7 120.999 321.7 120.999 321.6C120.999 258.5 120.999 198.6 120.999 135.2C142.099 123 163.299 110.8 184.399 98.6001C184.499 98.6001 184.499 98.5001 184.599 98.5001C187.199 97.0001 189.799 95.5001 192.399 94.0001C192.599 93.9001 192.899 93.7001 193.099 93.6001C194.199 92.9001 195.399 92.3001 196.499 91.6001C196.599 91.6001 196.599 91.5001 196.699 91.5001C196.799 91.4001 196.799 91.4001 196.899 91.3001C196.899 91.2001 196.999 91.2001 196.999 91.1001L184.699 98.1001Z" fill="url(#paint10_linear_2_23781)"/>
<path d="M120.8 135L111 129.3V348.5V349.1V352.1L111.5 352.4L120.8 336.2V135Z" fill="url(#paint11_linear_2_23781)"/>
<path d="M111 129.3V348.6C110.5 348.3 110.5 348.3 110 348V128.7C110.5 129 110.5 129 111 129.3Z" fill="url(#paint12_linear_2_23781)"/>
<path d="M108.398 127.8V350.6L107.898 350.3V348.5V346.8V127.5L108.398 127.8Z" fill="url(#paint13_linear_2_23781)"/>
<path d="M105.898 126.3V345.6C105.498 345.4 105.198 345.2 104.898 345C104.398 344.7 103.998 344.5 103.398 344.1V124.9C103.798 125.2 105.398 126 105.898 126.3Z" fill="url(#paint14_linear_2_23781)"/>
<path d="M193.1 289.9L121 331.5V330.4L192.1 289.3L193.1 289.9Z" fill="#4F6A73"/>
<path d="M214.1 79.2C220.9 75 227.6 70.9 234.5 66.8L255 54.8L275.7 43C282.6 39.1 289.6 35.3 296.6 31.5C289.9 35.7 283.1 39.8 276.2 43.9L255.7 55.9L235 67.8C228.1 71.7 221.1 75.5 214.1 79.2Z" fill="white"/>
<path d="M197.098 292.2C190.998 296.2 184.698 300.1 178.398 303.9C172.098 307.7 165.798 311.4 159.498 315.1C153.098 318.7 146.798 322.4 140.298 325.9C133.898 329.4 127.398 332.9 120.898 336.2C126.998 332.2 133.298 328.3 139.598 324.5C145.898 320.7 152.198 317 158.498 313.3C164.898 309.7 171.198 306 177.698 302.5C183.998 299 190.498 295.5 197.098 292.2Z" fill="white"/>
<path d="M296.9 241.6C296.9 241.6 296.8 241.6 296.9 241.6C296.8 241.6 296.8 241.6 296.9 241.6C296.8 241.6 296.8 241.6 296.9 241.6C296.8 241.6 296.8 241.6 296.9 241.6C296.8 241.5 296.8 241.5 296.9 241.6C296.8 241.5 296.8 241.5 296.9 241.6C296.8 241.5 296.8 241.5 296.9 241.6C296.8 241.5 296.8 241.5 296.8 241.5C296.8 241.5 296.8 241.5 296.7 241.5L288 236.5L284.4 234.4L224.3 269.1L222.8 274.1C219.9 279.1 217 284.1 214.1 289.1C214.1 289.2 214 289.2 214 289.3C214 289.4 213.9 289.4 213.8 289.5C213.7 289.6 213.7 289.6 213.6 289.6C241.4 273.6 269.1 257.6 296.9 241.6Z" fill="url(#paint15_linear_2_23781)"/>
<path d="M296.9 30.9001C296.9 31.0001 296.9 31.1001 296.9 31.1001C296.9 31.2001 296.9 31.3001 296.8 31.3001C296.8 31.4001 296.7 31.4001 296.7 31.5001C293.8 36.5001 290.9 41.5001 288 46.5001V236.3L296.7 241.3C296.7 241.3 296.7 241.3 296.8 241.3C296.9 171.3 296.9 101.1 296.9 30.9001Z" fill="url(#paint16_linear_2_23781)"/>
<path d="M224.3 85.1001L222.8 84.2001C222.6 84.1001 222.5 84.0001 222.3 83.9001C219.6 82.3001 216.9 80.8001 214.1 79.2001C214.1 79.2001 214 79.2001 214 79.1001C214 79.1001 213.9 79.0001 213.8 79.0001C213.7 79.0001 213.7 78.9001 213.6 78.9001C213.5 78.9001 213.5 78.8001 213.4 78.8001L213.3 78.7001L213.2 78.6001H213.1H213C213 78.6001 212.9 78.5001 212.8 78.5001C212.8 78.5001 212.7 78.5001 212.7 78.4001C212.7 78.4001 212.6 78.4001 212.6 78.3001C212.4 78.2001 212.2 78.1001 212 77.9001V288.9C212.1 289 212.2 289 212.3 289.1C212.4 289.1 212.5 289.2 212.6 289.3C212.7 289.3 212.7 289.4 212.8 289.4C212.9 289.4 212.9 289.5 213 289.5C213 289.5 213.1 289.5 213.1 289.6H213.2C213.2 289.6 213.2 289.6 213.3 289.6H213.4H213.5C213.6 289.6 213.6 289.5 213.7 289.5C213.8 289.5 213.8 289.4 213.9 289.4C214 289.3 214 289.3 214.1 289.2C214.1 289.1 214.2 289.1 214.2 289C217.1 284 220 279 222.9 274L224.4 269V85.1001H224.3Z" fill="url(#paint17_linear_2_23781)"/>
<path d="M284.399 50.5001L287.999 46.6001L222.799 84.2001L224.299 85.1001L284.399 50.5001Z" fill="url(#paint18_linear_2_23781)"/>
<path d="M296.8 30.7002V30.6002C296.8 30.6002 296.8 30.5002 296.7 30.5002C296.7 30.5002 296.7 30.5002 296.6 30.4002H296.5C296.5 30.4002 296.4 30.4002 296.4 30.3002C296.3 30.3002 296.3 30.2002 296.2 30.2002C296.1 30.2002 296.1 30.1002 296 30.1002C295.9 30.1002 295.8 30.0002 295.7 29.9002C295.6 29.8002 295.5 29.8002 295.4 29.7002L212 78.0002C212.2 78.1002 212.4 78.2002 212.6 78.4002C212.6 78.4002 212.7 78.4002 212.7 78.5002C212.7 78.5002 212.8 78.5002 212.8 78.6002C212.8 78.6002 212.9 78.7002 213 78.7002H213.1C213.1 78.7002 213.1 78.7002 213.2 78.7002C213.2 78.7002 213.3 78.7002 213.3 78.8002L213.4 78.9002C213.5 78.9002 213.5 79.0002 213.6 79.0002C213.7 79.0002 213.7 79.1002 213.8 79.1002C213.9 79.1002 213.9 79.2002 214 79.2002L214.1 79.3002C216.8 80.9002 219.5 82.4002 222.3 84.0002C222.5 84.1002 222.6 84.2002 222.8 84.3002L288 46.6002C290.9 41.6002 293.8 36.6002 296.7 31.6002C296.7 31.5002 296.8 31.5002 296.8 31.4002C296.8 31.3002 296.9 31.3002 296.9 31.2002C296.9 31.1002 296.9 31.0002 296.9 31.0002C296.9 30.8002 296.9 30.8002 296.8 30.7002Z" fill="url(#paint19_linear_2_23781)"/>
<path d="M224.299 85.1001L284.399 50.4001L224.299 85.1001Z" fill="url(#paint20_linear_2_23781)"/>
<path d="M201.499 83.3001C199.999 85.9001 198.499 88.4001 197.099 91.0001C197.099 91.1001 196.999 91.1001 196.999 91.2001C196.999 91.3001 196.899 91.3001 196.799 91.4001C196.699 91.5001 196.699 91.5001 196.599 91.5001C195.499 92.2001 194.299 92.8001 193.199 93.5001V290L197.099 292.3L206.399 297.7V75.1001C204.799 77.9001 203.099 80.4001 201.499 83.3001Z" fill="url(#paint21_linear_2_23781)"/>
<path d="M197.099 292.2L193.199 289.9L192.199 290.5L121.199 331.5C121.199 331.5 121.299 333.6 120.999 336.1L111.699 352.3L206.599 297.5L197.099 292.2Z" fill="url(#paint22_linear_2_23781)"/>
<path d="M109.898 128.7V348C109.398 348.9 108.898 349.8 108.398 350.7V127.8L109.898 128.7Z" fill="url(#paint23_linear_2_23781)"/>
<path d="M193.1 93.5V289.9L192.1 289.3V94L193.1 93.5Z" fill="#4F6A73"/>
<path d="M108.398 127.8L109.898 128.7L295.498 21.5C295.998 20.6 296.498 19.7 296.998 18.8L203.298 73L108.398 127.8Z" fill="url(#paint24_linear_2_23781)"/>
<path d="M203.298 73.0001L297.098 18.9001L296.598 18.6001L294.998 19.5001L202.798 72.7001L107.898 127.5L108.398 127.8L203.298 73.0001Z" fill="url(#paint25_linear_2_23781)"/>
<path d="M106.398 126.6V349.4L105.898 349.1V347.4V345.6V126.3L106.398 126.6Z" fill="url(#paint26_linear_2_23781)"/>
<path d="M107.898 127.5V346.8C107.398 347.7 106.898 348.6 106.398 349.5V126.6L107.898 127.5Z" fill="url(#paint27_linear_2_23781)"/>
<path d="M106.398 126.6L107.898 127.5L294.998 19.5002V17.7002L201.298 71.8002L106.398 126.6Z" fill="url(#paint28_linear_2_23781)"/>
<path d="M201.298 71.8001L294.998 17.7001L294.498 17.4001L292.998 18.3001L200.798 71.5001L105.898 126.3L106.398 126.6L201.298 71.8001Z" fill="url(#paint29_linear_2_23781)"/>
<path d="M290.398 18.6C290.398 18.6 289.398 18 288.898 17.7C289.398 16.8 289.898 15.9 290.398 15V18.6Z" fill="url(#paint30_linear_2_23781)"/>
<path d="M101.799 124V346.8L101.299 346.5V344.7V342.9V123.7L101.799 124Z" fill="url(#paint31_linear_2_23781)"/>
<path d="M103.299 124.9V344.2C102.799 345.1 102.299 346 101.799 346.9V124L103.299 124.9Z" fill="url(#paint32_linear_2_23781)"/>
<path d="M101.799 124L103.299 124.9L288.899 17.7C289.399 16.8 289.899 15.9 290.399 15L196.699 69.1L101.799 124Z" fill="url(#paint33_linear_2_23781)"/>
<path d="M196.699 69.2L290.399 15.1L289.899 14.8L288.399 15.6L196.199 68.9001L101.299 123.7L101.799 124L196.699 69.2Z" fill="url(#paint34_linear_2_23781)"/>
<path d="M99.6992 122.8V345.6L99.1992 345.3V343.5V341.8V122.5L99.6992 122.8Z" fill="url(#paint35_linear_2_23781)"/>
<path d="M101.299 123.7V344.7L99.6992 345.6V122.8L101.299 123.7Z" fill="url(#paint36_linear_2_23781)"/>
<path d="M99.6992 122.8L101.299 123.7L288.399 15.6001V13.9001L194.699 68.0001L99.6992 122.8Z" fill="url(#paint37_linear_2_23781)"/>
<path d="M194.699 68.0001L288.399 13.9001L287.899 13.6001L286.299 14.5001L194.199 67.7001L99.1992 122.5L99.6992 122.8L194.699 68.0001Z" fill="url(#paint38_linear_2_23781)"/>
<path d="M222.799 274.1C225.499 272.5 228.199 270.9 230.899 269.3L238.999 264.5C244.399 261.3 249.799 258.2 255.299 255C260.699 251.9 266.199 248.7 271.599 245.6L279.799 241C282.499 239.5 285.299 237.9 287.999 236.4C285.299 238 282.599 239.6 279.899 241.2L271.799 246C266.399 249.2 260.999 252.3 255.499 255.5C250.099 258.6 244.599 261.8 239.199 264.9L230.999 269.5C228.299 271 225.599 272.6 222.799 274.1Z" fill="white"/>
<path d="M121 336.7C124.1 334.8 127.3 333 130.5 331.1L140 325.5L159 314.4L178.1 303.4L187.7 298C190.9 296.2 194.1 294.4 197.3 292.6C194.2 294.5 191 296.3 187.8 298.2L178.3 303.8L159.3 314.9L140.2 325.8L130.6 331.2C127.4 333.1 124.2 334.9 121 336.7Z" fill="white"/>
<path d="M296.6 31.6001L286.4 37.7001L276.1 43.7001L255.5 55.6001L234.9 67.5001L224.5 73.4001L214.1 79.2001L224.4 73.2001L234.7 67.2001L255.3 55.2001L275.9 43.3001L286.3 37.4001L296.6 31.6001Z" fill="white"/>
<path d="M299.799 21.1001L276.399 34.8001L252.899 48.4001L205.899 75.6001L158.799 102.7L135.299 116.2L111.699 129.7L135.099 116L158.599 102.4L205.599 75.2001L252.699 48.1001L276.299 34.6001L299.799 21.1001Z" fill="white"/>
<path d="M296.598 19.3L273.098 32.9001L249.598 46.6L202.598 73.8001L155.598 100.8L131.998 114.3L108.398 127.8L131.898 114.1L155.398 100.5L202.398 73.3001L249.398 46.2001L272.998 32.7001L296.598 19.3Z" fill="white"/>
<path d="M294.498 18.1001L271.098 31.8001L247.598 45.4001L200.598 72.6001L153.498 99.7001L129.998 113.2L106.398 126.6L129.798 112.9L153.298 99.3001L200.298 72.1001L247.398 45.0001L270.998 31.5001L294.498 18.1001Z" fill="white"/>
<path d="M289.999 15.4001L266.499 29.1001L242.999 42.7001L195.999 69.9001L148.899 97.0001L125.399 110.5L101.799 124L125.199 110.3L148.699 96.7001L195.699 69.5001L242.799 42.4001L266.399 28.9001L289.999 15.4001Z" fill="white"/>
<path d="M287.899 14.2002L264.499 27.9002L240.999 41.6002L193.999 68.7002L146.899 95.8002L123.299 109.3L99.6992 122.8L123.199 109.1L146.699 95.5002L193.699 68.3002L240.799 41.2002L264.299 27.7002L287.899 14.2002Z" fill="white"/>
<path d="M279.698 54.3003V231.6C279.398 231.4 278.798 231 278.398 230.8V55.1003L279.698 54.3003Z" fill="#4F6A73"/>
<path d="M279.698 231.7L225.398 263V261.5L278.498 230.9C278.798 231.1 279.398 231.5 279.698 231.7Z" fill="#4F6A73"/>
<path d="M283.399 52.2002V233.8L282.699 233.4V52.6002L283.399 52.2002Z" fill="#6FB2C2"/>
<path d="M283.398 233.8L225.398 267.3V266.5L282.698 233.4L283.398 233.8Z" fill="#6FB2C2"/>
<path d="M282.699 52.6001V233.4C281.699 232.8 279.699 231.7 279.699 231.7V54.3001L282.699 52.6001Z" fill="url(#paint39_linear_2_23781)"/>
<path d="M278.398 55.1001V230.9C277.398 230.3 275.398 229.2 275.398 229.2V56.8001L278.398 55.1001Z" fill="url(#paint40_linear_2_23781)"/>
<path d="M279.398 231.5L225.398 262.7V261.9L278.798 231.1L279.398 231.5Z" fill="#6FB2C2"/>
<path d="M279.399 54.5002V231.5L278.799 231.1V54.9002L279.399 54.5002Z" fill="#6FB2C2"/>
<path d="M278.399 230.9L225.299 261.5V258L275.299 229.1C276.399 229.8 277.399 230.3 278.399 230.9Z" fill="url(#paint41_linear_2_23781)"/>
<path d="M282.698 233.4L225.398 266.5V263L279.698 231.7L282.698 233.4Z" fill="url(#paint42_linear_2_23781)"/>
<path d="M275.399 56.8003V229.2L274.699 228.8V57.2003L275.399 56.8003Z" fill="#6FB2C2"/>
<path d="M275.398 229.2L225.398 258.1V257.3L274.698 228.8L275.398 229.2Z" fill="#6FB2C2"/>
<path d="M188.4 96.2V287.2C188.1 287 187.5 286.6 187.1 286.4V96.9L188.4 96.2Z" fill="#4F6A73"/>
<path d="M188.4 287.2L121 326.1V324.6L187.1 286.4C187.5 286.6 188.1 287 188.4 287.2Z" fill="#4F6A73"/>
<path d="M192.1 94V289.3L191.4 288.9L191.5 94.4L192.1 94Z" fill="#6FB2C2"/>
<path d="M192.1 289.3L121 330.4V329.6L191.4 288.9L192.1 289.3Z" fill="#6FB2C2"/>
<path d="M191.5 94.3999V288.9C190.5 288.3 188.5 287.2 188.5 287.2V96.1999L191.5 94.3999Z" fill="url(#paint43_linear_2_23781)"/>
<path d="M187.199 96.8999V286.4C186.199 285.8 184.199 284.7 184.199 284.7V98.6999L187.199 96.8999Z" fill="url(#paint44_linear_2_23781)"/>
<path d="M188.1 287L121 325.8V325L187.5 286.6L188.1 287Z" fill="#6FB2C2"/>
<path d="M188.2 96.3L188.1 287L187.5 286.6V96.7L188.2 96.3Z" fill="#6FB2C2"/>
<path d="M187.1 286.4L121 324.6V321.1L184.1 284.7C185.1 285.3 186.1 285.9 187.1 286.4Z" fill="url(#paint45_linear_2_23781)"/>
<path d="M191.4 288.9L121 329.6V326.1L188.4 287.2L191.4 288.9Z" fill="url(#paint46_linear_2_23781)"/>
<path d="M184.1 98.7V284.7L183.5 284.3H183.4V99.1L184.1 98.7Z" fill="#6FB2C2"/>
<path d="M184.1 284.7L121 321.1V320.4L183.4 284.3H183.5L184.1 284.7Z" fill="#6FB2C2"/>
<path opacity="0.25" d="M283.398 52.2002V233.8L225.398 267.3V85.7002L277.098 55.8002L279.898 54.2002L283.398 52.2002Z" fill="#0C97F5"/>
<path opacity="0.25" d="M279.898 54.2002V231.8L225.398 263.2V85.7002L277.098 55.8002L279.898 54.2002Z" fill="#0C97F5"/>
<path opacity="0.25" d="M277.098 55.8003V230.1L225.398 260V85.7003L277.098 55.8003Z" fill="#0C97F5"/>
<path opacity="0.25" d="M192.1 94.2002V289.3L121 330.2V135.1L185.8 97.9002L188.6 96.2002L192.1 94.2002Z" fill="#0C97F5"/>
<path opacity="0.25" d="M188.6 96.2002V287.3L121 326.2V135.1L185.8 97.9002L188.6 96.2002Z" fill="#0C97F5"/>
<path opacity="0.25" d="M185.8 97.9001V285.6L121 322.9V135.1L185.8 97.9001Z" fill="#0C97F5"/>
<path fill-rule="evenodd" clip-rule="evenodd" d="M321.602 145.682C322.164 146.29 322.127 147.239 321.519 147.801L270.964 194.535L313.153 245.241C313.683 245.877 313.597 246.823 312.96 247.353C312.323 247.883 311.377 247.796 310.847 247.159L267.747 195.359C267.237 194.746 267.296 193.84 267.882 193.298L319.482 145.598C320.091 145.036 321.04 145.073 321.602 145.682Z" fill="#207EC4"/>
<path d="M328.201 139.5C325.801 144.2 323.401 150.7 322.901 155.7L319.501 147.6L311.701 143.6C316.701 143.4 323.301 141.6 328.201 139.5Z" fill="#207EC4"/>
<path fill-rule="evenodd" clip-rule="evenodd" d="M314.004 127.484C314.565 128.094 314.526 129.043 313.916 129.604L244.486 193.519L316.335 276.619C316.877 277.246 316.808 278.193 316.181 278.735C315.555 279.277 314.608 279.208 314.066 278.581L241.266 194.381C240.736 193.768 240.788 192.845 241.384 192.296L311.884 127.396C312.494 126.835 313.443 126.875 314.004 127.484Z" fill="#207EC4"/>
<path d="M320.6 121.4C318.2 126.1 315.8 132.5 315.3 137.6L311.9 129.5L304.1 125.4C309.1 125.3 315.8 123.4 320.6 121.4Z" fill="#207EC4"/>
<path fill-rule="evenodd" clip-rule="evenodd" d="M324.404 42.3853C324.964 42.9955 324.924 43.9444 324.313 44.5047L264.313 99.6047C263.703 100.165 262.754 100.125 262.194 99.5145C261.634 98.9043 261.674 97.9554 262.284 97.3951L322.284 42.2951C322.894 41.7348 323.843 41.7752 324.404 42.3853Z" fill="#FFAA00"/>
<path d="M255.6 105.6C258 100.9 260.4 94.4999 261 89.3999L264.4 97.4999L272.2 101.6C267.1 101.8 260.5 103.6 255.6 105.6Z" fill="#FFAA00"/>
<path fill-rule="evenodd" clip-rule="evenodd" d="M331.505 56.786C332.065 57.3964 332.024 58.3453 331.414 58.9053L261.114 123.405C260.503 123.965 259.554 123.925 258.994 123.314C258.434 122.704 258.475 121.755 259.086 121.195L329.386 56.6948C329.996 56.1347 330.945 56.1755 331.505 56.786Z" fill="#FFAA00"/>
<path d="M252.4 129.4C254.8 124.7 257.2 118.3 257.8 113.2L261.2 121.3L269 125.4C263.9 125.6 257.2 127.4 252.4 129.4Z" fill="#FFAA00"/>
<path fill-rule="evenodd" clip-rule="evenodd" d="M343.905 66.6852C344.465 67.2952 344.425 68.2441 343.815 68.8046L256.515 149.005C255.905 149.565 254.956 149.525 254.395 148.915C253.835 148.305 253.875 147.356 254.485 146.795L341.785 66.5953C342.395 66.0349 343.344 66.0751 343.905 66.6852Z" fill="#FFAA00"/>
<path d="M247.801 155C250.201 150.3 252.601 143.9 253.201 138.8L256.601 146.9L264.401 151C259.301 151.2 252.701 153 247.801 155Z" fill="#FFAA00"/>
<path d="M333.299 218.8L332.299 218.2L335.199 216.8L334.799 216L331.299 217.7L330.599 217.3L334.799 215.3L334.399 214.5L329.599 216.8L328.099 215.9L333.699 213.4L328.599 211.2L329.599 210.6L334.299 212.9L334.699 212.1L330.499 210.1L331.199 209.7L334.699 211.4L335.099 210.6L332.199 209.2L333.199 208.6L337.199 208.3L337.999 205.4L335.099 204.6L332.799 207.9L331.799 208.5L331.999 205.3L331.099 205.2L330.799 209.1L330.099 209.5L330.399 204.9V204.8L329.499 204.7L329.099 210L327.799 210.8L328.499 204.8V204.7L323.799 208.1V206.9L328.199 203.9L327.699 203.1L323.799 205.7V204.9L326.999 202.7L326.499 201.9L323.799 203.7V202.5L325.499 198.9L323.299 196.7L321.099 198.9L322.799 202.5V203.7L320.099 201.9L319.599 202.7L322.799 204.9V205.7L318.999 203.1L318.499 203.9L322.899 206.9V208.1L318.199 204.6L318.899 210.7L317.599 210L317.199 204.7V204.6L316.299 204.7L316.599 209.4L315.899 209L315.599 205.2V205.1L314.699 205.2L314.899 208.4L313.899 207.8L311.599 204.6L308.699 205.4L309.499 208.3L313.499 208.6L314.499 209.2L311.599 210.6L311.999 211.4L315.499 209.7L316.199 210.1L311.999 212.1L312.399 212.9L317.199 210.6L318.199 211.2L313.099 213.5L318.699 216L317.199 216.9L312.399 214.6L311.999 215.4L316.199 217.4L315.499 217.8L311.999 216.1L311.599 216.9L314.499 218.3L313.499 218.9L309.599 219.2L308.799 222.1L311.699 222.9L313.999 219.6L314.999 219L314.799 222.2L315.699 222.3L315.999 218.4L316.699 218L316.399 222.6V222.7L317.299 222.8L317.699 217.5L318.899 216.8L318.299 222.2V222.3L322.999 218.8V220.5L318.599 223.5L319.099 224.3L322.999 221.7V222.5L319.799 224.7L320.299 225.5L322.999 223.7V224.9L321.299 228.5L323.499 230.7L325.699 228.5L323.999 224.9V223.7L326.699 225.5L327.199 224.7L323.999 222.5V221.7L327.899 224.3L328.399 223.5L323.999 220.5V218.8L328.699 222.2L328.099 216.6L329.399 217.3L329.799 222.6V222.7L330.699 222.6L330.399 217.9L331.099 218.3L331.399 222.1V222.2L332.299 222.1L332.099 218.9L333.099 219.5L335.399 222.8L338.299 222L337.499 219.1L333.299 218.8ZM336.599 220L336.999 221.4L335.599 221.8L334.199 219.8L336.599 220ZM323.299 229.3L322.299 228.3L323.299 226.1L324.299 228.3L323.299 229.3ZM323.299 197.9L324.299 198.9L323.299 201.1L322.299 198.9L323.299 197.9ZM324.299 213.6L325.899 212.7L327.499 213.4L325.399 214.3L324.299 213.6ZM323.799 212.8V210.9L325.399 209.7L325.199 212L323.799 212.8ZM322.899 212.8L321.499 212L321.299 209.8L322.899 211V212.8ZM322.399 213.6L321.299 214.3L319.199 213.4L320.799 212.7L322.399 213.6ZM322.899 214.4V215.7L321.299 216.9L321.499 215.2L322.899 214.4ZM323.799 214.4L325.199 215.2L325.399 216.9L323.799 215.7V214.4ZM326.399 214.8L329.799 213.3L326.899 212L327.599 211.6L331.399 213.3L327.099 215.2L326.399 214.8ZM326.099 211.4L326.499 207.7L323.799 209.7V208.9L327.399 206.3L326.899 211L326.099 211.4ZM322.899 209.8L320.099 207.8L320.499 211.4L319.799 211L319.299 206.3L322.899 208.9V209.8ZM319.799 212L316.899 213.3L320.299 214.8L319.599 215.2L315.299 213.3L319.099 211.6L319.799 212ZM320.499 215.8L320.199 218.9L322.999 216.9V217.7L319.399 220.3L319.799 216.2L320.499 215.8ZM323.799 216.9L326.499 218.9L326.199 215.8L326.899 216.2L327.399 220.4L323.799 217.8V216.9ZM336.899 205.7L336.499 207.1L333.999 207.3L335.399 205.3L336.899 205.7ZM311.199 205.3L312.599 207.3L310.099 207.1L309.699 205.7L311.199 205.3ZM309.699 221.4L310.099 220L312.599 219.8L311.199 221.8L309.699 221.4Z" fill="#00AEEF"/>
<path d="M302.3 292.2C302 292 301.6 291.9 301.2 291.9C300.6 291.9 300.1 292.1 299.7 292.5L297.4 291.2L300.7 290.3L300.4 289.1L295.9 290.3L294.3 289.3L297.6 288.4L297.3 287.2L292.8 288.4L290.5 287L295.6 284.8C295.6 284.9 295.6 284.9 295.7 285C296 285.4 296.4 285.7 297 285.7C297.3 285.7 297.5 285.6 297.7 285.5C298.4 285.1 298.6 284.2 298.2 283.5C297.9 283.1 297.5 282.8 296.9 282.8C296.6 282.8 296.4 282.9 296.2 283C296 283.1 295.8 283.3 295.7 283.6L290.7 281.4L292.8 280.2L297.3 281.4L297.6 280.2L294.3 279.3L295.9 278.3L300.4 279.5L300.7 278.3L297.4 277.4L299.7 276.1C300.1 276.5 300.6 276.7 301.2 276.7C301.6 276.7 301.9 276.6 302.3 276.4C302.8 276.1 303.2 275.6 303.3 275.1C303.4 274.5 303.4 274 303.1 273.5C302.7 272.8 302 272.4 301.2 272.4C300.8 272.4 300.5 272.5 300.1 272.7C299.6 273 299.2 273.5 299.1 274C299 274.4 299 274.7 299.1 275.1L296.8 276.4L297.7 273.1V273L296.5 272.7L295.3 277.2L293.7 278.2L294.6 274.9V274.8L293.4 274.5L292.2 279L289.9 280.3L290.5 274.8H290.6C291.4 274.8 292.1 274.1 292.1 273.3C292.1 272.5 291.4 271.8 290.6 271.8C289.8 271.8 289.1 272.5 289.1 273.3C289.1 273.6 289.2 273.8 289.3 274.1L284.9 277.3V275L288.2 271.7L287.3 270.8L284.9 273.2V271.3L288.2 268L287.3 267.1L284.9 269.5V267C285.8 266.7 286.4 265.9 286.4 264.9C286.4 263.7 285.4 262.8 284.3 262.8C283.1 262.8 282.1 263.8 282.1 264.9C282.1 265.9 282.8 266.7 283.6 267V269.7L281.2 267.3L280.3 268.2L283.6 271.5V273.4L281.2 271L280.3 271.9L283.6 275.2V277.7L279.2 274.5C279.4 274.2 279.4 273.8 279.3 273.4C279.2 273 279 272.7 278.6 272.5C278.4 272.4 278.1 272.3 277.9 272.3C277.4 272.3 276.9 272.6 276.6 273C276.2 273.7 276.4 274.6 277.1 275C277.3 275.1 277.6 275.2 277.8 275.2H277.9L278.5 280.7L276.2 279.4L275 274.9L273.8 275.2L274.7 278.5L273.1 277.5L271.9 273L270.7 273.3L271.6 276.6L269.3 275.3C269.4 275 269.4 274.6 269.3 274.2C269.2 273.6 268.8 273.2 268.3 272.9C268 272.7 267.6 272.6 267.2 272.6C266.4 272.6 265.7 273 265.3 273.7C265 274.2 264.9 274.8 265.1 275.3C265.2 275.9 265.6 276.3 266.1 276.6C266.4 276.8 266.8 276.9 267.2 276.9C267.8 276.9 268.3 276.7 268.7 276.3L271 277.6L267.7 278.5L268 279.7L272.5 278.5L274.1 279.5L270.8 280.4L271.1 281.6L275.6 280.4L277.7 281.6L272.7 283.8C272.4 283.4 272 283.1 271.4 283.1C271.1 283.1 270.9 283.2 270.7 283.3C270 283.7 269.8 284.6 270.2 285.3C270.5 285.7 270.9 286 271.5 286C271.8 286 272 285.9 272.2 285.8C272.5 285.6 272.7 285.4 272.8 285.1L277.9 287.3L275.6 288.7L271.1 287.5L270.8 288.7L274.1 289.6L272.5 290.6L268 289.4L267.7 290.6L271 291.5L268.7 292.8C268.3 292.4 267.8 292.2 267.2 292.2C266.8 292.2 266.5 292.3 266.1 292.5C265.6 292.8 265.2 293.3 265.1 293.8C265 294.4 265 294.9 265.3 295.4C265.7 296.1 266.4 296.5 267.2 296.5C267.6 296.5 267.9 296.4 268.3 296.2C268.8 295.9 269.2 295.4 269.3 294.9C269.4 294.5 269.4 294.2 269.3 293.8L271.6 292.5L270.7 295.8V295.9L271.9 296.2L273.1 291.7L274.7 290.7L273.8 294V294.1L275 294.4L276.2 289.9L278.4 288.6L277.8 294.1H277.7C276.9 294.1 276.2 294.8 276.2 295.6C276.2 296.4 276.9 297.1 277.7 297.1C278.5 297.1 279.2 296.4 279.2 295.6C279.2 295.3 279.1 295 278.9 294.7L283.4 291.4V294.1L280.1 297.4L281 298.3L283.4 295.9V297.8L280.1 301.1L281 302L283.4 299.6V302.3C282.5 302.6 281.9 303.4 281.9 304.4C281.9 305.6 282.9 306.5 284.1 306.5C285.3 306.5 286.2 305.5 286.2 304.4C286.2 303.4 285.5 302.6 284.7 302.3V299L287.1 301.4L288 300.5L284.7 297.2V295.3L287.1 297.7L288 296.8L284.7 293.5V291L289.2 294.3L289.1 294.4C288.9 294.7 288.9 295.1 289 295.5C289.1 295.9 289.3 296.2 289.7 296.4C289.9 296.5 290.2 296.6 290.4 296.6C290.9 296.6 291.4 296.3 291.7 295.9C292.1 295.2 291.9 294.3 291.2 293.9C291 293.8 290.7 293.7 290.5 293.7H290.4L289.8 288.2L292 289.5L293.2 294L294.4 293.7L293.5 290.4L295.1 291.4L296.3 295.9L297.5 295.6L296.6 292.3L298.9 293.6C298.8 293.9 298.8 294.3 298.9 294.7C299 295.3 299.4 295.7 299.9 296C300.2 296.2 300.6 296.3 301 296.3C301.8 296.3 302.5 295.9 302.9 295.2C303.2 294.7 303.3 294.1 303.1 293.6C303.1 292.9 302.8 292.4 302.3 292.2ZM300.3 293.7L300.5 293.4C300.7 293.2 300.9 293.1 301.2 293.1C301.4 293.1 301.5 293.1 301.7 293.2C301.9 293.3 302.1 293.5 302.1 293.8C302.2 294 302.1 294.3 302 294.5C301.8 294.8 301.5 295 301.2 295C301 295 300.9 295 300.7 294.9C300.5 294.8 300.3 294.6 300.3 294.3C300.3 294.1 300.3 293.9 300.3 293.7ZM284.6 302.8C285 302.9 285.3 303.3 285.3 303.7C285.3 304.2 284.9 304.6 284.4 304.6C283.9 304.6 283.5 304.2 283.5 303.7C283.5 303.2 283.8 302.9 284.2 302.8H284.6ZM284.2 265.8C283.8 265.7 283.5 265.3 283.5 264.9C283.5 264.4 283.9 264 284.4 264C284.9 264 285.3 264.4 285.3 264.9C285.3 265.4 285 265.7 284.6 265.8H284.2ZM274.8 284.2L279.5 282.1L280.2 281.8L279.6 275.9L283.8 279L284.3 279.4L284.9 279L289.1 275.9L288.5 281.8L289.2 282.1L293.9 284.2L288.5 286.6L289.1 292.5L284.3 289L279.5 292.5L280.1 286.6L274.8 284.2ZM300.7 273.8C300.8 273.7 301 273.7 301.2 273.7C301.5 273.7 301.8 273.9 302 274.2C302.1 274.4 302.2 274.7 302.1 274.9C302 275.1 301.9 275.3 301.7 275.5C301.6 275.6 301.4 275.6 301.2 275.6C300.9 275.6 300.7 275.5 300.5 275.3L300.3 275C300.2 274.5 300.3 274 300.7 273.8ZM267.6 275.6C267.4 275.6 267.3 275.6 267.1 275.5C266.9 275.4 266.7 275.2 266.7 274.9C266.6 274.7 266.7 274.4 266.8 274.2C267 273.9 267.3 273.7 267.6 273.7C267.8 273.7 267.9 273.7 268.1 273.8C268.3 273.9 268.5 274.1 268.5 274.4C268.5 274.6 268.5 274.8 268.5 274.9L268.3 275.2C268.1 275.4 267.9 275.6 267.6 275.6ZM268.1 294.8C268 294.9 267.8 294.9 267.6 294.9C267.3 294.9 267 294.7 266.8 294.4C266.7 294.2 266.6 293.9 266.7 293.7C266.8 293.5 266.9 293.3 267.1 293.1C267.2 293 267.4 293 267.6 293C267.9 293 268.1 293.1 268.3 293.3L268.5 293.6C268.6 294.1 268.5 294.6 268.1 294.8Z" fill="#00AEEF"/>
<path d="M280.9 290.3L284.4 287.7L287.9 290.3L287.4 286L291.4 284.2L287.4 282.4L287.9 278.1L284.4 280.7L280.9 278.1L281.4 282.4L277.4 284.2L281.4 286L280.9 290.3ZM282.6 283.2L282.3 280.7L284.3 282.2L286.3 280.7L286 283.1L288.3 284.1L286 285.1L286.3 287.6L284.3 286.1L282.3 287.6L282.6 285.2L280.3 284.2L282.6 283.2Z" fill="#00AEEF"/>
<path d="M337.301 265.4L340.501 263.6L343.701 265.4V261.7L346.801 259.9L343.701 258.1V254.4L340.501 256.2L337.301 254.4V258.1L334.201 259.9L337.301 261.7V265.4ZM338.301 258.8V256.2L340.501 257.5L342.701 256.2V258.8L344.801 260L342.701 261.2V263.8L340.501 262.5L338.301 263.8V261.2L336.201 260L338.301 258.8Z" fill="#00AEEF"/>
<path d="M360.801 258.7C360.301 258.7 359.801 259 359.601 259.4H357.101L358.801 256.7L357.801 256L355.601 259.3H354.001L357.101 254.6L356.101 253.9L352.601 259.3H349.501L346.001 257.3L348.501 255.9L350.301 256.4C350.301 256.5 350.301 256.5 350.401 256.6C350.601 256.9 350.801 257 351.101 257C351.201 257 351.401 257 351.501 256.9C351.901 256.7 352.001 256.1 351.801 255.7C351.601 255.4 351.401 255.3 351.101 255.3C351.001 255.3 350.801 255.3 350.701 255.4L350.601 255.5L349.701 255.3L350.901 254.6C351.101 254.7 351.301 254.8 351.501 254.8C351.701 254.8 351.901 254.8 352.001 254.7C352.401 254.5 352.601 254.1 352.501 253.7C352.501 253.6 352.401 253.4 352.401 253.3C352.301 253.2 352.201 253.1 352.101 253C351.901 252.9 351.701 252.8 351.501 252.8C351.301 252.8 351.101 252.8 351.001 252.9C350.601 253.1 350.401 253.5 350.501 253.9L349.301 254.6L349.501 253.7C349.601 253.7 349.601 253.7 349.701 253.6C350.101 253.4 350.201 252.8 350.001 252.4C349.801 252.1 349.601 252 349.301 252C349.201 252 349.001 252 348.901 252.1C348.701 252.2 348.601 252.4 348.501 252.6C348.401 252.8 348.501 253 348.601 253.2L348.701 253.3L348.201 255.1L345.801 256.5V252.3L347.201 249.8L353.601 249.5H353.701L353.601 248.3L348.001 248.6L348.801 247.2L352.801 247L352.701 245.8L349.501 246L350.701 243.9C350.701 243.9 350.701 243.9 350.801 243.9C351.301 243.9 351.701 243.6 352.001 243.2C352.401 242.6 352.101 241.7 351.501 241.4C351.301 241.3 351.101 241.2 350.801 241.2C350.301 241.2 349.901 241.5 349.601 241.9C349.301 242.3 349.401 242.9 349.601 243.3L348.401 245.4L346.901 242.6L345.801 243.2L347.601 246.7L346.801 248.1L344.201 243.1L343.101 243.7L346.001 249.4L344.501 252.1L341.001 254.1V251L342.301 249.7C342.401 249.7 342.401 249.7 342.501 249.7C343.001 249.7 343.301 249.3 343.301 248.9C343.301 248.4 342.901 248.1 342.501 248.1C342.101 248.1 341.601 248.5 341.601 248.9C341.601 249 341.601 249 341.601 249.1L340.901 249.8V248.4C341.301 248.2 341.501 247.9 341.501 247.4C341.501 247 341.301 246.6 340.901 246.4C340.801 246.3 340.601 246.3 340.501 246.3C340.301 246.3 340.201 246.3 340.101 246.4C339.701 246.6 339.501 246.9 339.501 247.4C339.501 247.8 339.701 248.2 340.101 248.4V249.8L339.401 249.1C339.401 249 339.401 249 339.401 248.9C339.401 248.4 339.001 248.1 338.501 248.1C338.001 248.1 337.701 248.5 337.701 248.9C337.701 249.4 338.101 249.7 338.501 249.7C338.601 249.7 338.601 249.7 338.701 249.7L340.001 251V253.9L336.501 251.9L335.001 249.2L337.901 243.5V243.4L336.801 242.8L334.201 247.8L333.401 246.4L335.201 242.9L334.101 242.3L332.601 245.1L331.401 243C331.701 242.6 331.701 242.1 331.401 241.6C331.201 241.2 330.701 240.9 330.201 240.9C330.001 240.9 329.701 241 329.501 241.1C328.901 241.5 328.601 242.3 329.001 242.9C329.201 243.3 329.701 243.6 330.201 243.6C330.201 243.6 330.201 243.6 330.301 243.6L331.501 245.7L328.301 245.5L328.201 246.7L332.201 246.9L333.001 248.3L327.401 248L327.301 249.2L333.701 249.5L335.101 252V256.2L332.701 254.8L332.201 253L332.301 252.9C332.501 252.5 332.401 252 332.001 251.7C331.901 251.6 331.701 251.6 331.601 251.6C331.301 251.6 331.001 251.8 330.901 252C330.701 252.4 330.801 252.9 331.201 253.2C331.201 253.2 331.301 253.2 331.401 253.3L331.601 254.2L330.401 253.5C330.401 253.1 330.201 252.7 329.901 252.5C329.701 252.4 329.601 252.4 329.401 252.4C329.201 252.4 329.001 252.5 328.801 252.6C328.701 252.7 328.601 252.8 328.501 252.9C328.401 253 328.401 253.2 328.401 253.3C328.401 253.7 328.601 254.1 328.901 254.3C329.101 254.4 329.201 254.4 329.401 254.4C329.601 254.4 329.801 254.3 330.001 254.2L331.201 254.9L330.301 255.1L330.201 255C330.101 254.9 329.901 254.9 329.801 254.9C329.501 254.9 329.201 255.1 329.101 255.3C328.901 255.7 329.001 256.2 329.401 256.5C329.501 256.6 329.701 256.6 329.801 256.6C330.101 256.6 330.401 256.4 330.501 256.2C330.501 256.2 330.601 256.1 330.601 256L332.401 255.5L334.901 256.9L331.401 258.9H328.301L324.801 253.5L323.801 254.2L326.901 258.9H325.301L323.101 255.6L322.101 256.3L323.801 259H321.301C321.101 258.6 320.601 258.3 320.101 258.3C319.401 258.3 318.801 258.9 318.801 259.6C318.801 260.3 319.401 260.9 320.101 260.9C320.601 260.9 321.101 260.6 321.301 260.2H323.801L322.101 262.9L323.101 263.6L325.301 260.3H326.901L323.801 265L324.801 265.7L328.301 260.3H331.401L334.901 262.3L332.401 263.7L330.601 263.2C330.601 263.1 330.601 263.1 330.501 263C330.301 262.7 330.101 262.6 329.801 262.6C329.701 262.6 329.501 262.6 329.401 262.7C329.001 262.9 328.901 263.5 329.101 263.9C329.301 264.2 329.501 264.3 329.801 264.3C329.901 264.3 330.101 264.3 330.201 264.2L330.301 264.1L331.201 264.3L330.001 265C329.801 264.9 329.601 264.8 329.401 264.8C329.201 264.8 329.001 264.8 328.901 264.9C328.501 265.1 328.301 265.5 328.401 265.9C328.401 266 328.501 266.2 328.501 266.3C328.601 266.4 328.701 266.5 328.801 266.6C329.001 266.7 329.201 266.8 329.401 266.8C329.601 266.8 329.801 266.8 329.901 266.7C330.301 266.5 330.501 266.1 330.401 265.7L331.601 265L331.401 265.9C331.301 265.9 331.301 265.9 331.201 266C330.801 266.2 330.701 266.8 330.901 267.2C331.101 267.5 331.301 267.6 331.601 267.6C331.701 267.6 331.901 267.6 332.001 267.5C332.201 267.4 332.301 267.2 332.401 267C332.501 266.8 332.401 266.6 332.301 266.4L332.201 266.3L332.701 264.5L335.101 263.1V267.3L333.701 269.8L327.301 270.1H327.201L327.301 271.3L332.901 271L332.101 272.4L328.101 272.6L328.201 273.8L331.401 273.6L330.201 275.7C330.201 275.7 330.201 275.7 330.101 275.7C329.601 275.7 329.201 276 328.901 276.4C328.501 277 328.801 277.9 329.401 278.2C329.601 278.3 329.801 278.4 330.101 278.4C330.601 278.4 331.001 278.1 331.301 277.7C331.601 277.3 331.501 276.7 331.301 276.3L332.501 274.2L334.001 277L335.101 276.4L333.301 272.9L334.101 271.5L336.701 276.5L337.801 275.9L334.901 270.2L336.401 267.5L339.901 265.5V268.4L338.601 269.7C338.501 269.7 338.501 269.7 338.401 269.7C337.901 269.7 337.601 270.1 337.601 270.5C337.601 271 338.001 271.3 338.401 271.3C338.901 271.3 339.301 270.9 339.301 270.5C339.301 270.4 339.301 270.4 339.301 270.3L340.001 269.6V271C339.601 271.2 339.401 271.5 339.401 272C339.401 272.4 339.601 272.8 340.001 273C340.101 273.1 340.301 273.1 340.401 273.1C340.601 273.1 340.701 273.1 340.801 273C341.201 272.8 341.401 272.5 341.401 272C341.401 271.6 341.201 271.2 340.801 271V269.6L341.501 270.3C341.501 270.4 341.501 270.4 341.501 270.5C341.501 271 341.901 271.3 342.401 271.3C342.901 271.3 343.201 270.9 343.201 270.5C343.201 270 342.801 269.7 342.401 269.7C342.301 269.7 342.301 269.7 342.201 269.7L341.001 269V266.1L344.501 268.1L346.001 270.8L343.101 276.5V276.6L344.201 277.2L346.801 272.2L347.601 273.6L345.801 277.1L346.901 277.7L348.401 274.9L349.601 277C349.301 277.4 349.301 277.9 349.601 278.4C349.801 278.8 350.301 279.1 350.801 279.1C351.001 279.1 351.301 279 351.501 278.9C352.101 278.5 352.401 277.7 352.001 277.1C351.801 276.7 351.301 276.4 350.801 276.4C350.801 276.4 350.801 276.4 350.701 276.4L349.501 274.3L352.701 274.5L352.801 273.3L348.801 273.1L348.001 271.7L353.601 272L353.701 270.8L347.301 270.5L345.901 268V263.8L348.301 265.2L348.801 267L348.701 267.1C348.601 267.3 348.601 267.5 348.601 267.7C348.601 267.9 348.801 268.1 349.001 268.2C349.101 268.3 349.301 268.3 349.401 268.3C349.701 268.3 350.001 268.1 350.101 267.9C350.301 267.5 350.201 267 349.801 266.7C349.801 266.7 349.701 266.7 349.601 266.6L349.401 265.7L350.601 266.4C350.601 266.8 350.801 267.2 351.101 267.4C351.301 267.5 351.401 267.5 351.601 267.5C351.801 267.5 352.001 267.4 352.201 267.3C352.301 267.2 352.401 267.1 352.501 267C352.601 266.9 352.601 266.7 352.601 266.6C352.601 266.2 352.401 265.8 352.101 265.6C351.901 265.5 351.801 265.5 351.601 265.5C351.401 265.5 351.201 265.6 351.001 265.7L349.801 265L350.701 264.8L350.801 264.9C350.901 265 351.101 265 351.201 265C351.501 265 351.801 264.8 351.901 264.6C352.101 264.2 352.001 263.7 351.601 263.4C351.501 263.3 351.301 263.3 351.201 263.3C350.901 263.3 350.601 263.5 350.501 263.7C350.501 263.7 350.401 263.8 350.401 263.9L348.601 264.4L346.101 263L349.601 261H352.701L356.201 266.4L357.201 265.7L354.101 261H355.701L357.901 264.3L358.901 263.6L357.201 260.9H359.701C359.901 261.3 360.401 261.6 360.901 261.6C361.601 261.6 362.201 261 362.201 260.3C362.201 259.6 361.501 258.7 360.801 258.7ZM332.901 260L336.601 257.9V253.4L340.501 255.7L344.401 253.4V257.9L348.101 260L344.401 262.1V266.6L340.501 264.3L336.601 266.6V262.1L332.901 260Z" fill="#00AEEF"/>
<path d="M393.6 32C376.3 36.1 376 38.5 392.1 46C374.6 42.9 373.5 45 385.6 58C370.6 48.5 368.8 50 375.1 66.6C364.7 52.2 362.4 52.9 361.6 70.7C357.5 53.4 355.1 53.1 347.6 69.2C350.7 51.7 348.6 50.6 335.6 62.7C345.1 47.7 343.6 45.9 327 52.2C341.4 41.8 340.7 39.5 322.9 38.7C340.2 34.6 340.5 32.2 324.4 24.7C341.9 27.8 343 25.7 330.9 12.7C345.9 22.2 347.7 20.7 341.4 4.1C351.8 18.5 354.1 17.8 354.9 0C359 17.3 361.4 17.6 368.9 1.5C365.8 19 367.9 20.1 380.9 8C371.4 23 372.9 24.8 389.5 18.5C375.1 28.9 375.8 31.2 393.6 32Z" fill="#FFC400"/>
<path d="M360.151 55.0086C370.983 53.9885 378.938 44.3803 377.918 33.5482C376.897 22.716 367.289 14.7619 356.457 15.782C345.625 16.8022 337.671 26.4103 338.691 37.2425C339.711 48.0746 349.319 56.0288 360.151 55.0086Z" fill="#FFC400"/>
<path fill-rule="evenodd" clip-rule="evenodd" d="M356.742 18.7958C347.574 19.6592 340.842 27.791 341.705 36.9588C342.569 46.1265 350.7 52.8585 359.868 51.9951C369.036 51.1317 375.768 42.9999 374.904 33.8321C374.041 24.6644 365.909 17.9324 356.742 18.7958ZM335.678 37.5264C334.501 25.0299 343.677 13.9453 356.174 12.7684C368.67 11.5915 379.755 20.7679 380.932 33.2645C382.109 45.761 372.932 56.8455 360.436 58.0224C347.939 59.1993 336.855 50.023 335.678 37.5264Z" fill="white"/>
<path d="M20.0992 198.3V133.3C20.0992 131.3 18.4992 129.6 16.3992 129.6C14.3992 129.6 12.6992 131.2 12.6992 133.3V198.3C9.19922 199.8 6.69922 203.2 6.69922 207.3C6.69922 212.7 10.9992 217 16.3992 217C21.7992 217 26.0992 212.7 26.0992 207.3C26.0992 203.2 23.5992 199.8 20.0992 198.3Z" fill="url(#paint47_linear_2_23781)"/>
<path d="M45.0996 207.9H35.8996C35.6996 207.9 35.5996 207.7 35.5996 207.4C35.5996 207.1 35.6996 206.9 35.8996 206.9H45.0996C45.2996 206.9 45.3996 207.1 45.3996 207.4C45.3996 207.7 45.1996 207.9 45.0996 207.9Z" fill="#B0B0B0"/>
<path d="M40.9996 203.2H35.8996C35.6996 203.2 35.5996 203 35.5996 202.7C35.5996 202.4 35.6996 202.2 35.8996 202.2H40.9996C41.1996 202.2 41.2996 202.4 41.2996 202.7C41.2996 202.9 41.0996 203.2 40.9996 203.2Z" fill="#B0B0B0"/>
<path d="M40.9996 198.4H35.8996C35.6996 198.4 35.5996 198.2 35.5996 197.9C35.5996 197.6 35.6996 197.4 35.8996 197.4H40.9996C41.1996 197.4 41.2996 197.6 41.2996 197.9C41.2996 198.2 41.0996 198.4 40.9996 198.4Z" fill="#B0B0B0"/>
<path d="M40.9996 193.6H35.8996C35.6996 193.6 35.5996 193.4 35.5996 193.1C35.5996 192.8 35.6996 192.6 35.8996 192.6H40.9996C41.1996 192.6 41.2996 192.8 41.2996 193.1C41.2996 193.4 41.0996 193.6 40.9996 193.6Z" fill="#B0B0B0"/>
<path d="M45.0996 188.8H35.8996C35.6996 188.8 35.5996 188.6 35.5996 188.3C35.5996 188 35.6996 187.8 35.8996 187.8H45.0996C45.2996 187.8 45.3996 188 45.3996 188.3C45.3996 188.6 45.1996 188.8 45.0996 188.8Z" fill="#B0B0B0"/>
<path d="M40.9996 184.1H35.8996C35.6996 184.1 35.5996 183.9 35.5996 183.6C35.5996 183.3 35.6996 183.1 35.8996 183.1H40.9996C41.1996 183.1 41.2996 183.3 41.2996 183.6C41.2996 183.8 41.0996 184.1 40.9996 184.1Z" fill="#B0B0B0"/>
<path d="M40.9996 179.3H35.8996C35.6996 179.3 35.5996 179.1 35.5996 178.8C35.5996 178.5 35.6996 178.3 35.8996 178.3H40.9996C41.1996 178.3 41.2996 178.5 41.2996 178.8C41.2996 179.1 41.0996 179.3 40.9996 179.3Z" fill="#B0B0B0"/>
<path d="M40.9996 174.5H35.8996C35.6996 174.5 35.5996 174.3 35.5996 174C35.5996 173.7 35.6996 173.5 35.8996 173.5H40.9996C41.1996 173.5 41.2996 173.7 41.2996 174C41.2996 174.3 41.0996 174.5 40.9996 174.5Z" fill="#B0B0B0"/>
<path d="M44.9 169.9H36C35.7 169.9 35.5 169.7 35.5 169.4C35.5 169.1 35.7 168.9 36 168.9H44.8C45.1 168.9 45.3 169.1 45.3 169.4C45.4 169.7 45.1 169.9 44.9 169.9Z" fill="#B0B0B0"/>
<path d="M40.9996 165.3H35.8996C35.6996 165.3 35.5996 165.1 35.5996 164.8C35.5996 164.5 35.6996 164.3 35.8996 164.3H40.9996C41.1996 164.3 41.2996 164.5 41.2996 164.8C41.2996 165.1 41.0996 165.3 40.9996 165.3Z" fill="#B0B0B0"/>
<path d="M40.9996 160.7H35.8996C35.6996 160.7 35.5996 160.5 35.5996 160.2C35.5996 159.9 35.6996 159.7 35.8996 159.7H40.9996C41.1996 159.7 41.2996 159.9 41.2996 160.2C41.2996 160.5 41.0996 160.7 40.9996 160.7Z" fill="#B0B0B0"/>
<path d="M40.9996 156.1H35.8996C35.6996 156.1 35.5996 155.9 35.5996 155.6C35.5996 155.3 35.6996 155.1 35.8996 155.1H40.9996C41.1996 155.1 41.2996 155.3 41.2996 155.6C41.2996 155.8 41.0996 156.1 40.9996 156.1Z" fill="#B0B0B0"/>
<path d="M45.0996 151.5H35.8996C35.6996 151.5 35.5996 151.3 35.5996 151C35.5996 150.7 35.6996 150.5 35.8996 150.5H45.0996C45.2996 150.5 45.3996 150.7 45.3996 151C45.3996 151.2 45.1996 151.5 45.0996 151.5Z" fill="#B0B0B0"/>
<path d="M45.0996 133H35.8996C35.6996 133 35.5996 132.8 35.5996 132.5C35.5996 132.2 35.6996 132 35.8996 132H45.0996C45.2996 132 45.3996 132.2 45.3996 132.5C45.3996 132.8 45.1996 133 45.0996 133Z" fill="#B0B0B0"/>
<path d="M40.9996 146.8H35.8996C35.6996 146.8 35.5996 146.6 35.5996 146.3C35.5996 146 35.6996 145.8 35.8996 145.8H40.9996C41.1996 145.8 41.2996 146 41.2996 146.3C41.2996 146.6 41.0996 146.8 40.9996 146.8Z" fill="#B0B0B0"/>
<path d="M40.9996 142.2H35.8996C35.6996 142.2 35.5996 142 35.5996 141.7C35.5996 141.4 35.6996 141.2 35.8996 141.2H40.9996C41.1996 141.2 41.2996 141.4 41.2996 141.7C41.2996 142 41.0996 142.2 40.9996 142.2Z" fill="#B0B0B0"/>
<path d="M40.8 137.6H36C35.7 137.6 35.5 137.4 35.5 137.1C35.5 136.8 35.7 136.6 36 136.6H40.7C41 136.6 41.2 136.8 41.2 137.1C41.3 137.4 41.1 137.6 40.8 137.6Z" fill="#B0B0B0"/>
<path d="M26.0996 193.7V131.2C26.0996 126 21.7996 121.7 16.4996 121.7C11.1996 121.7 6.89961 126 6.89961 131.2V193.7C2.79961 196.6 0.0996094 201.4 0.0996094 206.7C0.0996094 215.6 7.49961 222.8 16.4996 222.8C25.4996 222.8 32.8996 215.6 32.8996 206.7C32.7996 201.4 30.1996 196.6 26.0996 193.7Z" fill="#E6E6E6"/>
<path d="M20.0992 198.3V193.1V184.1V174V164.8V156.1V146.4H12.6992V156.1V164.8V174V184.1V193.1V198.3C9.19922 199.8 6.69922 203.2 6.69922 207.3C6.69922 212.7 10.9992 217 16.3992 217C21.6992 217 26.0992 212.7 26.0992 207.3C26.0992 203.2 23.5992 199.8 20.0992 198.3Z" fill="url(#paint48_linear_2_23781)"/>
<path d="M16.3992 129.7C14.3992 129.7 12.6992 131.3 12.6992 133.4V137.2V146.4H20.0992V137.2V133.4C20.0992 131.3 18.3992 129.7 16.3992 129.7Z" fill="white"/>
<path d="M365 198.2V133.2C365 131.2 363.4 129.5 361.3 129.5C359.3 129.5 357.6 131.1 357.6 133.2V198.2C354.1 199.7 351.6 203.1 351.6 207.2C351.6 212.6 355.9 216.9 361.3 216.9C366.6 216.9 371 212.6 371 207.2C370.9 203.1 368.5 199.7 365 198.2Z" fill="url(#paint49_linear_2_23781)"/>
<path d="M389.9 207.8H380.7C380.5 207.8 380.4 207.6 380.4 207.3C380.4 207 380.5 206.8 380.7 206.8H389.9C390.1 206.8 390.2 207 390.2 207.3C390.2 207.6 390.1 207.8 389.9 207.8Z" fill="#B0B0B0"/>
<path d="M385.9 203.1H380.8C380.6 203.1 380.5 202.9 380.5 202.6C380.5 202.3 380.6 202.1 380.8 202.1H385.9C386.1 202.1 386.2 202.3 386.2 202.6C386.1 202.8 386 203.1 385.9 203.1Z" fill="#B0B0B0"/>
<path d="M385.9 198.3H380.8C380.6 198.3 380.5 198.1 380.5 197.8C380.5 197.5 380.6 197.3 380.8 197.3H385.9C386.1 197.3 386.2 197.5 386.2 197.8C386.1 198.1 386 198.3 385.9 198.3Z" fill="#B0B0B0"/>
<path d="M385.9 193.5H380.8C380.6 193.5 380.5 193.3 380.5 193C380.5 192.7 380.6 192.5 380.8 192.5H385.9C386.1 192.5 386.2 192.7 386.2 193C386.1 193.3 386 193.5 385.9 193.5Z" fill="#B0B0B0"/>
<path d="M389.9 188.7H380.7C380.5 188.7 380.4 188.5 380.4 188.2C380.4 187.9 380.5 187.7 380.7 187.7H389.9C390.1 187.7 390.2 187.9 390.2 188.2C390.2 188.5 390.1 188.7 389.9 188.7Z" fill="#B0B0B0"/>
<path d="M385.9 184H380.8C380.6 184 380.5 183.8 380.5 183.5C380.5 183.2 380.6 183 380.8 183H385.9C386.1 183 386.2 183.2 386.2 183.5C386.1 183.7 386 184 385.9 184Z" fill="#B0B0B0"/>
<path d="M385.9 179.2H380.8C380.6 179.2 380.5 179 380.5 178.7C380.5 178.4 380.6 178.2 380.8 178.2H385.9C386.1 178.2 386.2 178.4 386.2 178.7C386.1 179 386 179.2 385.9 179.2Z" fill="#B0B0B0"/>
<path d="M385.9 174.4H380.8C380.6 174.4 380.5 174.2 380.5 173.9C380.5 173.6 380.6 173.4 380.8 173.4H385.9C386.1 173.4 386.2 173.6 386.2 173.9C386.1 174.2 386 174.4 385.9 174.4Z" fill="#B0B0B0"/>
<path d="M389.7 169.8H380.9C380.6 169.8 380.4 169.6 380.4 169.3C380.4 169 380.6 168.8 380.9 168.8H389.7C390 168.8 390.2 169 390.2 169.3C390.2 169.6 390 169.8 389.7 169.8Z" fill="#B0B0B0"/>
<path d="M385.9 165.2H380.8C380.6 165.2 380.5 165 380.5 164.7C380.5 164.4 380.6 164.2 380.8 164.2H385.9C386.1 164.2 386.2 164.4 386.2 164.7C386.1 165 386 165.2 385.9 165.2Z" fill="#B0B0B0"/>
<path d="M385.9 160.6H380.8C380.6 160.6 380.5 160.4 380.5 160.1C380.5 159.8 380.6 159.6 380.8 159.6H385.9C386.1 159.6 386.2 159.8 386.2 160.1C386.1 160.3 386 160.6 385.9 160.6Z" fill="#B0B0B0"/>
<path d="M385.9 156H380.8C380.6 156 380.5 155.8 380.5 155.5C380.5 155.2 380.6 155 380.8 155H385.9C386.1 155 386.2 155.2 386.2 155.5C386.1 155.7 386 156 385.9 156Z" fill="#B0B0B0"/>
<path d="M389.9 151.3H380.7C380.5 151.3 380.4 151.1 380.4 150.8C380.4 150.5 380.5 150.3 380.7 150.3H389.9C390.1 150.3 390.2 150.5 390.2 150.8C390.2 151.1 390.1 151.3 389.9 151.3Z" fill="#B0B0B0"/>
<path d="M389.9 132.9H380.7C380.5 132.9 380.4 132.7 380.4 132.4C380.4 132.1 380.5 131.9 380.7 131.9H389.9C390.1 131.9 390.2 132.1 390.2 132.4C390.2 132.7 390.1 132.9 389.9 132.9Z" fill="#B0B0B0"/>
<path d="M385.9 146.7H380.8C380.6 146.7 380.5 146.5 380.5 146.2C380.5 145.9 380.6 145.7 380.8 145.7H385.9C386.1 145.7 386.2 145.9 386.2 146.2C386.1 146.5 386 146.7 385.9 146.7Z" fill="#B0B0B0"/>
<path d="M385.9 142.1H380.8C380.6 142.1 380.5 141.9 380.5 141.6C380.5 141.3 380.6 141.1 380.8 141.1H385.9C386.1 141.1 386.2 141.3 386.2 141.6C386.1 141.9 386 142.1 385.9 142.1Z" fill="#B0B0B0"/>
<path d="M385.6 137.5H380.9C380.6 137.5 380.4 137.3 380.4 137C380.4 136.7 380.6 136.5 380.9 136.5H385.6C385.9 136.5 386.1 136.7 386.1 137C386.1 137.3 385.9 137.5 385.6 137.5Z" fill="#B0B0B0"/>
<path d="M370.9 193.8V131.2C370.9 126 366.6 121.7 361.3 121.7C356 121.7 351.7 126 351.7 131.2V193.8C347.6 196.7 344.9 201.5 344.9 206.9C344.9 215.8 352.3 223 361.3 223C370.3 223 377.7 215.8 377.7 206.9C377.7 201.5 375 196.7 370.9 193.8Z" fill="#E6E6E6"/>
<path d="M365 198.4V193.2V184.2V182.9H357.6V184.2V193.2V198.4C354.1 199.9 351.6 203.3 351.6 207.4C351.6 212.8 355.9 217.1 361.3 217.1C366.7 217.1 371 212.8 371 207.4C370.9 203.4 368.5 199.9 365 198.4Z" fill="url(#paint50_linear_2_23781)"/>
<path d="M361.3 129.8C359.3 129.8 357.6 131.4 357.6 133.5V137.3V183H365V137.3V133.5C365 131.4 363.3 129.8 361.3 129.8Z" fill="white"/>
</g>
<defs>
<linearGradient id="paint0_linear_2_23781" x1="153.695" y1="159.114" x2="153.474" y2="159.114" gradientUnits="userSpaceOnUse">
<stop offset="0.3052" stop-color="#F1F1F1"/>
<stop offset="0.9377" stop-color="#F1F1F1"/>
<stop offset="0.9666" stop-color="#EAEAEA"/>
<stop offset="0.9915" stop-color="#E8E8E8"/>
</linearGradient>
<linearGradient id="paint1_linear_2_23781" x1="295.532" y1="20.5067" x2="297.061" y2="20.5067" gradientUnits="userSpaceOnUse">
<stop offset="0.0897436" stop-color="#EFEFEF"/>
<stop offset="0.9377" stop-color="#F1F1F1"/>
</linearGradient>
<linearGradient id="paint2_linear_2_23781" x1="109.947" y1="75.4062" x2="296.55" y2="75.4062" gradientUnits="userSpaceOnUse">
<stop stop-color="#CBCBCB"/>
<stop offset="0.0470085" stop-color="#BBBBBB"/>
</linearGradient>
<linearGradient id="paint3_linear_2_23781" x1="197.282" y1="71.8437" x2="205.69" y2="86.6429" gradientUnits="userSpaceOnUse">
<stop stop-color="#CBCBCB"/>
<stop offset="0.0470085" stop-color="#BBBBBB"/>
</linearGradient>
<linearGradient id="paint4_linear_2_23781" x1="284.283" y1="160.345" x2="296.166" y2="160.345" gradientUnits="userSpaceOnUse">
<stop stop-color="#CBCBCB"/>
<stop offset="0.2841" stop-color="#D8D8D8"/>
<stop offset="0.3317" stop-color="#F1F1F1"/>
<stop offset="0.374" stop-color="#EAEAEA"/>
<stop offset="1" stop-color="#E8E8E8"/>
</linearGradient>
<linearGradient id="paint5_linear_2_23781" x1="273.821" y1="143.005" x2="274.032" y2="143.005" gradientUnits="userSpaceOnUse">
<stop offset="0.3052" stop-color="#F1F1F1"/>
<stop offset="0.9377" stop-color="#F1F1F1"/>
<stop offset="0.9666" stop-color="#EAEAEA"/>
<stop offset="0.9915" stop-color="#E8E8E8"/>
</linearGradient>
<linearGradient id="paint6_linear_2_23781" x1="225.358" y1="242.391" x2="274.028" y2="242.391" gradientUnits="userSpaceOnUse">
<stop offset="0.3052" stop-color="#F1F1F1"/>
<stop offset="0.9377" stop-color="#F1F1F1"/>
<stop offset="0.9666" stop-color="#EAEAEA"/>
<stop offset="0.9915" stop-color="#E8E8E8"/>
</linearGradient>
<linearGradient id="paint7_linear_2_23781" x1="182.552" y1="191.687" x2="182.762" y2="191.687" gradientUnits="userSpaceOnUse">
<stop offset="0.3052" stop-color="#F1F1F1"/>
<stop offset="0.9377" stop-color="#F1F1F1"/>
<stop offset="0.9666" stop-color="#EAEAEA"/>
<stop offset="0.9915" stop-color="#E8E8E8"/>
</linearGradient>
<linearGradient id="paint8_linear_2_23781" x1="121.037" y1="301.69" x2="182.76" y2="301.69" gradientUnits="userSpaceOnUse">
<stop offset="0.3052" stop-color="#F1F1F1"/>
<stop offset="0.9377" stop-color="#F1F1F1"/>
<stop offset="0.9666" stop-color="#EAEAEA"/>
<stop offset="0.9915" stop-color="#E8E8E8"/>
</linearGradient>
<linearGradient id="paint9_linear_2_23781" x1="205.574" y1="75.0115" x2="209.979" y2="82.6421" gradientUnits="userSpaceOnUse">
<stop stop-color="#CBCBCB"/>
<stop offset="0.0447653" stop-color="#D8D8D8"/>
<stop offset="0.0543346" stop-color="#EFEFEF"/>
<stop offset="0.0610453" stop-color="#F1F1F1"/>
<stop offset="0.9377" stop-color="#F1F1F1"/>
</linearGradient>
<linearGradient id="paint10_linear_2_23781" x1="110.813" y1="130.218" x2="115.362" y2="138.098" gradientUnits="userSpaceOnUse">
<stop stop-color="#CBCBCB"/>
<stop offset="0.803" stop-color="#D8D8D8"/>
</linearGradient>
<linearGradient id="paint11_linear_2_23781" x1="110.97" y1="240.824" x2="120.824" y2="240.824" gradientUnits="userSpaceOnUse">
<stop stop-color="#CBCBCB"/>
<stop offset="0.0667433" stop-color="#D8D8D8"/>
<stop offset="0.0744763" stop-color="#F1F1F1"/>
<stop offset="0.9377" stop-color="#F1F1F1"/>
<stop offset="0.9666" stop-color="#EAEAEA"/>
<stop offset="0.9915" stop-color="#E8E8E8"/>
<stop offset="1" stop-color="#DADADA"/>
</linearGradient>
<linearGradient id="paint12_linear_2_23781" x1="109.949" y1="238.615" x2="110.97" y2="238.615" gradientUnits="userSpaceOnUse">
<stop stop-color="#CBCBCB"/>
<stop offset="0.3512" stop-color="#BBBBBB"/>
</linearGradient>
<linearGradient id="paint13_linear_2_23781" x1="107.98" y1="239.057" x2="110.24" y2="239.057" gradientUnits="userSpaceOnUse">
<stop stop-color="#CBCBCB"/>
<stop offset="0.151" stop-color="#D8D8D8"/>
<stop offset="0.1728" stop-color="#F1F1F1"/>
<stop offset="0.9377" stop-color="#F1F1F1"/>
<stop offset="0.9666" stop-color="#EAEAEA"/>
<stop offset="0.9915" stop-color="#E8E8E8"/>
<stop offset="1" stop-color="#DADADA"/>
</linearGradient>
<linearGradient id="paint14_linear_2_23781" x1="102.287" y1="235.228" x2="110.858" y2="235.228" gradientUnits="userSpaceOnUse">
<stop stop-color="#CBCBCB"/>
<stop offset="0.3512" stop-color="#BBBBBB"/>
</linearGradient>
<linearGradient id="paint15_linear_2_23781" x1="249.041" y1="254.821" x2="255.084" y2="265.287" gradientUnits="userSpaceOnUse">
<stop stop-color="#CBCBCB"/>
<stop offset="0.2841" stop-color="#D8D8D8"/>
<stop offset="0.3052" stop-color="#F1F1F1"/>
<stop offset="0.9805" stop-color="#F1F1F1"/>
<stop offset="1" stop-color="#EAEAEA"/>
</linearGradient>
<linearGradient id="paint16_linear_2_23781" x1="284.194" y1="136.234" x2="296.369" y2="136.234" gradientUnits="userSpaceOnUse">
<stop stop-color="#CBCBCB"/>
<stop offset="0.2841" stop-color="#D8D8D8"/>
<stop offset="0.3052" stop-color="#F1F1F1"/>
<stop offset="0.9377" stop-color="#F1F1F1"/>
<stop offset="0.991" stop-color="#EAEAEA"/>
<stop offset="1" stop-color="#E8E8E8"/>
</linearGradient>
<linearGradient id="paint17_linear_2_23781" x1="212.007" y1="183.866" x2="224.34" y2="183.866" gradientUnits="userSpaceOnUse">
<stop stop-color="#CBCBCB"/>
<stop offset="0.1864" stop-color="#D8D8D8"/>
<stop offset="0.2076" stop-color="#F1F1F1"/>
<stop offset="0.8693" stop-color="#F1F1F1"/>
<stop offset="0.8822" stop-color="#EAEAEA"/>
</linearGradient>
<linearGradient id="paint18_linear_2_23781" x1="249.474" y1="55.0775" x2="252.821" y2="60.9354" gradientUnits="userSpaceOnUse">
<stop stop-color="#CBCBCB"/>
<stop offset="0.2841" stop-color="#D8D8D8"/>
<stop offset="0.3317" stop-color="#F1F1F1"/>
<stop offset="0.374" stop-color="#EAEAEA"/>
<stop offset="1" stop-color="#E8E8E8"/>
</linearGradient>
<linearGradient id="paint19_linear_2_23781" x1="253.858" y1="53.3585" x2="261.14" y2="65.9711" gradientUnits="userSpaceOnUse">
<stop stop-color="#CBCBCB"/>
<stop offset="0.1669" stop-color="#D8D8D8"/>
<stop offset="0.1917" stop-color="#F1F1F1"/>
<stop offset="0.9377" stop-color="#F1F1F1"/>
<stop offset="0.991" stop-color="#EAEAEA"/>
<stop offset="1" stop-color="#E8E8E8"/>
</linearGradient>
<linearGradient id="paint20_linear_2_23781" x1="254.283" y1="67.6371" x2="254.383" y2="67.8104" gradientUnits="userSpaceOnUse">
<stop stop-color="#CBCBCB"/>
<stop offset="0.1669" stop-color="#D8D8D8"/>
<stop offset="0.1917" stop-color="#F1F1F1"/>
<stop offset="0.9377" stop-color="#F1F1F1"/>
<stop offset="0.991" stop-color="#EAEAEA"/>
<stop offset="1" stop-color="#E8E8E8"/>
</linearGradient>
<linearGradient id="paint21_linear_2_23781" x1="193.133" y1="186.33" x2="206.395" y2="186.33" gradientUnits="userSpaceOnUse">
<stop stop-color="#CBCBCB"/>
<stop offset="0.3036" stop-color="#D8D8D8"/>
<stop offset="0.3468" stop-color="#F1F1F1"/>
<stop offset="0.9377" stop-color="#F1F1F1"/>
</linearGradient>
<linearGradient id="paint22_linear_2_23781" x1="152.237" y1="313.371" x2="160.157" y2="327.089" gradientUnits="userSpaceOnUse">
<stop stop-color="#CBCBCB"/>
<stop offset="0.2841" stop-color="#D8D8D8"/>
<stop offset="0.3052" stop-color="#F1F1F1"/>
<stop offset="0.9377" stop-color="#F1F1F1"/>
<stop offset="0.9666" stop-color="#EAEAEA"/>
<stop offset="0.9915" stop-color="#E8E8E8"/>
<stop offset="1" stop-color="#DADADA"/>
</linearGradient>
<linearGradient id="paint23_linear_2_23781" x1="107.979" y1="239.204" x2="110.239" y2="239.204" gradientUnits="userSpaceOnUse">
<stop stop-color="#CBCBCB"/>
<stop offset="0.151" stop-color="#D8D8D8"/>
<stop offset="0.1728" stop-color="#F1F1F1"/>
<stop offset="0.9377" stop-color="#F1F1F1"/>
<stop offset="0.9666" stop-color="#EAEAEA"/>
<stop offset="0.9915" stop-color="#E8E8E8"/>
<stop offset="1" stop-color="#DADADA"/>
</linearGradient>
<linearGradient id="paint24_linear_2_23781" x1="202.503" y1="72.9325" x2="204.532" y2="76.4674" gradientUnits="userSpaceOnUse">
<stop stop-color="#CBCBCB"/>
<stop offset="0.0484283" stop-color="#D8D8D8"/>
<stop offset="0.0683713" stop-color="#F1F1F1"/>
<stop offset="0.0897436" stop-color="#EFEFEF"/>
<stop offset="0.9377" stop-color="#F1F1F1"/>
</linearGradient>
<linearGradient id="paint25_linear_2_23781" x1="202.424" y1="73.0946" x2="206.489" y2="80.1543" gradientUnits="userSpaceOnUse">
<stop stop-color="#CBCBCB"/>
<stop offset="0.0484283" stop-color="#D8D8D8"/>
<stop offset="0.0683713" stop-color="#F1F1F1"/>
<stop offset="0.0897436" stop-color="#EFEFEF"/>
<stop offset="0.9377" stop-color="#F1F1F1"/>
</linearGradient>
<linearGradient id="paint26_linear_2_23781" x1="105.939" y1="237.879" x2="108.2" y2="237.879" gradientUnits="userSpaceOnUse">
<stop stop-color="#CBCBCB"/>
<stop offset="0.151" stop-color="#D8D8D8"/>
<stop offset="0.1728" stop-color="#F1F1F1"/>
<stop offset="0.9377" stop-color="#F1F1F1"/>
<stop offset="0.9666" stop-color="#EAEAEA"/>
<stop offset="0.9915" stop-color="#E8E8E8"/>
<stop offset="1" stop-color="#DADADA"/>
</linearGradient>
<linearGradient id="paint27_linear_2_23781" x1="105.94" y1="238.026" x2="108.199" y2="238.026" gradientUnits="userSpaceOnUse">
<stop stop-color="#CBCBCB"/>
<stop offset="0.151" stop-color="#D8D8D8"/>
<stop offset="0.1728" stop-color="#F1F1F1"/>
<stop offset="0.9377" stop-color="#F1F1F1"/>
<stop offset="0.9666" stop-color="#EAEAEA"/>
<stop offset="0.9915" stop-color="#E8E8E8"/>
<stop offset="1" stop-color="#DADADA"/>
</linearGradient>
<linearGradient id="paint28_linear_2_23781" x1="200.463" y1="71.7551" x2="202.491" y2="75.2899" gradientUnits="userSpaceOnUse">
<stop stop-color="#CBCBCB"/>
<stop offset="0.0484283" stop-color="#D8D8D8"/>
<stop offset="0.0683713" stop-color="#F1F1F1"/>
<stop offset="0.0897436" stop-color="#EFEFEF"/>
<stop offset="0.9377" stop-color="#F1F1F1"/>
</linearGradient>
<linearGradient id="paint29_linear_2_23781" x1="200.384" y1="71.9174" x2="204.448" y2="78.9773" gradientUnits="userSpaceOnUse">
<stop stop-color="#CBCBCB"/>
<stop offset="0.0484283" stop-color="#D8D8D8"/>
<stop offset="0.0683713" stop-color="#F1F1F1"/>
<stop offset="0.0897436" stop-color="#EFEFEF"/>
<stop offset="0.9377" stop-color="#F1F1F1"/>
</linearGradient>
<linearGradient id="paint30_linear_2_23781" x1="288.901" y1="16.8263" x2="290.429" y2="16.8263" gradientUnits="userSpaceOnUse">
<stop offset="0.0897436" stop-color="#EFEFEF"/>
<stop offset="0.9377" stop-color="#F1F1F1"/>
</linearGradient>
<linearGradient id="paint31_linear_2_23781" x1="101.349" y1="235.228" x2="103.608" y2="235.228" gradientUnits="userSpaceOnUse">
<stop stop-color="#CBCBCB"/>
<stop offset="0.151" stop-color="#D8D8D8"/>
<stop offset="0.1728" stop-color="#F1F1F1"/>
<stop offset="0.9377" stop-color="#F1F1F1"/>
<stop offset="0.9666" stop-color="#EAEAEA"/>
<stop offset="0.9915" stop-color="#E8E8E8"/>
<stop offset="1" stop-color="#DADADA"/>
</linearGradient>
<linearGradient id="paint32_linear_2_23781" x1="101.349" y1="235.375" x2="103.609" y2="235.375" gradientUnits="userSpaceOnUse">
<stop stop-color="#CBCBCB"/>
<stop offset="0.151" stop-color="#D8D8D8"/>
<stop offset="0.1728" stop-color="#F1F1F1"/>
<stop offset="0.9377" stop-color="#F1F1F1"/>
<stop offset="0.9666" stop-color="#EAEAEA"/>
<stop offset="0.9915" stop-color="#E8E8E8"/>
<stop offset="1" stop-color="#DADADA"/>
</linearGradient>
<linearGradient id="paint33_linear_2_23781" x1="195.873" y1="69.1036" x2="197.901" y2="72.6388" gradientUnits="userSpaceOnUse">
<stop stop-color="#CBCBCB"/>
<stop offset="0.0484283" stop-color="#D8D8D8"/>
<stop offset="0.0683713" stop-color="#F1F1F1"/>
<stop offset="0.0897436" stop-color="#EFEFEF"/>
<stop offset="0.9377" stop-color="#F1F1F1"/>
</linearGradient>
<linearGradient id="paint34_linear_2_23781" x1="195.794" y1="69.2661" x2="199.858" y2="76.3243" gradientUnits="userSpaceOnUse">
<stop stop-color="#CBCBCB"/>
<stop offset="0.0484283" stop-color="#D8D8D8"/>
<stop offset="0.0683713" stop-color="#F1F1F1"/>
<stop offset="0.0897436" stop-color="#EFEFEF"/>
<stop offset="0.9377" stop-color="#F1F1F1"/>
</linearGradient>
<linearGradient id="paint35_linear_2_23781" x1="99.3094" y1="234.05" x2="101.568" y2="234.05" gradientUnits="userSpaceOnUse">
<stop stop-color="#CBCBCB"/>
<stop offset="0.151" stop-color="#D8D8D8"/>
<stop offset="0.1728" stop-color="#F1F1F1"/>
<stop offset="0.9377" stop-color="#F1F1F1"/>
<stop offset="0.9666" stop-color="#EAEAEA"/>
<stop offset="0.9915" stop-color="#E8E8E8"/>
<stop offset="1" stop-color="#DADADA"/>
</linearGradient>
<linearGradient id="paint36_linear_2_23781" x1="99.3093" y1="234.197" x2="101.569" y2="234.197" gradientUnits="userSpaceOnUse">
<stop stop-color="#CBCBCB"/>
<stop offset="0.151" stop-color="#D8D8D8"/>
<stop offset="0.1728" stop-color="#F1F1F1"/>
<stop offset="0.9377" stop-color="#F1F1F1"/>
<stop offset="0.9666" stop-color="#EAEAEA"/>
<stop offset="0.9915" stop-color="#E8E8E8"/>
<stop offset="1" stop-color="#DADADA"/>
</linearGradient>
<linearGradient id="paint37_linear_2_23781" x1="193.833" y1="67.926" x2="195.862" y2="71.4609" gradientUnits="userSpaceOnUse">
<stop stop-color="#CBCBCB"/>
<stop offset="0.0484283" stop-color="#D8D8D8"/>
<stop offset="0.0683713" stop-color="#F1F1F1"/>
<stop offset="0.0897436" stop-color="#EFEFEF"/>
<stop offset="0.9377" stop-color="#F1F1F1"/>
</linearGradient>
<linearGradient id="paint38_linear_2_23781" x1="193.754" y1="68.0883" x2="197.818" y2="75.1466" gradientUnits="userSpaceOnUse">
<stop stop-color="#CBCBCB"/>
<stop offset="0.0484283" stop-color="#D8D8D8"/>
<stop offset="0.0683713" stop-color="#F1F1F1"/>
<stop offset="0.0897436" stop-color="#EFEFEF"/>
<stop offset="0.9377" stop-color="#F1F1F1"/>
</linearGradient>
<linearGradient id="paint39_linear_2_23781" x1="279.709" y1="143.003" x2="282.728" y2="143.003" gradientUnits="userSpaceOnUse">
<stop stop-color="#AEAEAE"/>
<stop offset="0.047619" stop-color="#CBCBCB"/>
<stop offset="0.8439" stop-color="#CDCDCD"/>
<stop offset="0.9421" stop-color="#F1F1F1"/>
<stop offset="1" stop-color="#CBCBCB"/>
</linearGradient>
<linearGradient id="paint40_linear_2_23781" x1="275.405" y1="142.996" x2="278.424" y2="142.996" gradientUnits="userSpaceOnUse">
<stop stop-color="#AEAEAE"/>
<stop offset="0.047619" stop-color="#CBCBCB"/>
<stop offset="0.8439" stop-color="#CDCDCD"/>
<stop offset="0.9421" stop-color="#F1F1F1"/>
<stop offset="1" stop-color="#CBCBCB"/>
</linearGradient>
<linearGradient id="paint41_linear_2_23781" x1="250.377" y1="243.613" x2="255.152" y2="251.885" gradientUnits="userSpaceOnUse">
<stop stop-color="#AEAEAE"/>
<stop offset="0.015873" stop-color="#CBCBCB"/>
<stop offset="0.2761" stop-color="#D8D8D8"/>
<stop offset="0.2913" stop-color="#F1F1F1"/>
<stop offset="0.3127" stop-color="#CBCBCB"/>
<stop offset="0.8651" stop-color="#F1F1F1"/>
<stop offset="0.9312" stop-color="#EAEAEA"/>
</linearGradient>
<linearGradient id="paint42_linear_2_23781" x1="252.529" y1="247.343" x2="257.295" y2="255.6" gradientUnits="userSpaceOnUse">
<stop stop-color="#AEAEAE"/>
<stop offset="0.015873" stop-color="#CBCBCB"/>
<stop offset="0.2761" stop-color="#D8D8D8"/>
<stop offset="0.2913" stop-color="#F1F1F1"/>
<stop offset="0.3127" stop-color="#CBCBCB"/>
<stop offset="0.8651" stop-color="#F1F1F1"/>
<stop offset="0.9312" stop-color="#EAEAEA"/>
</linearGradient>
<linearGradient id="paint43_linear_2_23781" x1="188.424" y1="191.683" x2="191.459" y2="191.683" gradientUnits="userSpaceOnUse">
<stop stop-color="#AEAEAE"/>
<stop offset="0.047619" stop-color="#CBCBCB"/>
<stop offset="0.8439" stop-color="#CDCDCD"/>
<stop offset="0.9421" stop-color="#F1F1F1"/>
<stop offset="1" stop-color="#CBCBCB"/>
</linearGradient>
<linearGradient id="paint44_linear_2_23781" x1="184.12" y1="191.676" x2="187.156" y2="191.676" gradientUnits="userSpaceOnUse">
<stop stop-color="#AEAEAE"/>
<stop offset="0.047619" stop-color="#CBCBCB"/>
<stop offset="0.8439" stop-color="#CDCDCD"/>
<stop offset="0.9421" stop-color="#F1F1F1"/>
<stop offset="1" stop-color="#CBCBCB"/>
</linearGradient>
<linearGradient id="paint45_linear_2_23781" x1="152.569" y1="302.905" x2="157.376" y2="311.233" gradientUnits="userSpaceOnUse">
<stop stop-color="#AEAEAE"/>
<stop offset="0.015873" stop-color="#CBCBCB"/>
<stop offset="0.2761" stop-color="#D8D8D8"/>
<stop offset="0.2913" stop-color="#F1F1F1"/>
<stop offset="0.3127" stop-color="#CBCBCB"/>
<stop offset="0.8651" stop-color="#F1F1F1"/>
<stop offset="0.9312" stop-color="#EAEAEA"/>
</linearGradient>
<linearGradient id="paint46_linear_2_23781" x1="154.721" y1="306.639" x2="159.514" y2="314.943" gradientUnits="userSpaceOnUse">
<stop stop-color="#AEAEAE"/>
<stop offset="0.015873" stop-color="#CBCBCB"/>
<stop offset="0.2761" stop-color="#D8D8D8"/>
<stop offset="0.2913" stop-color="#F1F1F1"/>
<stop offset="0.3127" stop-color="#CBCBCB"/>
<stop offset="0.8651" stop-color="#F1F1F1"/>
<stop offset="0.9312" stop-color="#EAEAEA"/>
</linearGradient>
<linearGradient id="paint47_linear_2_23781" x1="6.76302" y1="173.321" x2="26.0694" y2="173.321" gradientUnits="userSpaceOnUse">
<stop stop-color="#630000"/>
<stop offset="1" stop-color="#FF0000"/>
</linearGradient>
<linearGradient id="paint48_linear_2_23781" x1="-8.92338" y1="181.661" x2="41.7558" y2="181.661" gradientUnits="userSpaceOnUse">
<stop stop-color="#FF6E6E"/>
<stop offset="1" stop-color="#C70000"/>
</linearGradient>
<linearGradient id="paint49_linear_2_23781" x1="351.631" y1="173.209" x2="370.937" y2="173.209" gradientUnits="userSpaceOnUse">
<stop stop-color="#630000"/>
<stop offset="1" stop-color="#FF0000"/>
</linearGradient>
<linearGradient id="paint50_linear_2_23781" x1="351.631" y1="199.973" x2="370.937" y2="199.973" gradientUnits="userSpaceOnUse">
<stop stop-color="#00AEFF"/>
<stop offset="1" stop-color="#0062FF"/>
</linearGradient>
<clipPath id="clip0_2_23781">
<rect width="393.6" height="352.4" fill="white"/>
</clipPath>
<clipPath id="clip1_2_23781">
<rect width="28" height="44" fill="white" transform="translate(127 261)"/>
</clipPath>
</defs>
</svg>
