<svg width="367" height="353" viewBox="0 0 367 353" fill="none" xmlns="http://www.w3.org/2000/svg">
<g clip-path="url(#clip0_2_24124)">
<path d="M219.498 249.6L219.398 249.4L254.298 229.2L254.398 229.4L219.498 249.6Z" fill="#00CCCC"/>
<path d="M255.699 230.2L254.299 229.4L254.399 229.2L255.799 230L255.699 230.2Z" fill="#00CCCC"/>
<path d="M256.099 230.5L255.699 230.2L255.799 230L255.899 230.1L256.199 230.2L256.099 230.5Z" fill="#00CCCC"/>
<path d="M219.498 247.7L219.398 247.5L252.698 228.2L252.798 228.5L219.498 247.7Z" fill="#00CCCC"/>
<path d="M253.999 229.3L252.699 228.5L252.799 228.2L254.099 229L253.999 229.3Z" fill="#00CCCC"/>
<path d="M219.498 249.3L219.398 249L253.998 229L254.098 229.3L219.498 249.3Z" fill="#00CCCC"/>
<path d="M254.498 229.5L253.998 229.3L254.098 229L254.598 229.3L254.498 229.5Z" fill="#00CCCC"/>
<path d="M256.099 230.5L255.699 230.2L255.799 230L255.899 230.1L256.199 230.2L256.099 230.5Z" fill="#00DD00"/>
<path d="M255.898 121H255.598V123.3H255.898V121Z" fill="#00DD00"/>
<path d="M255.898 228H255.598V230.1H255.898V228Z" fill="#00DD00"/>
<path d="M256.298 120.4H255.998V121.5H256.298V120.4Z" fill="#00DD00"/>
<path d="M256.298 229.2H255.998V230.4H256.298V229.2Z" fill="#00DD00"/>
<path d="M255.699 230.2L254.299 229.4L254.399 229.2L255.799 230L255.699 230.2Z" fill="#00DD00"/>
<path d="M254.499 123.2H254.199V229.3H254.499V123.2Z" fill="#00DD00"/>
<path d="M256.298 230.1H255.998V230.4H256.298V230.1Z" fill="#00DD00"/>
<path d="M252.898 125.2H252.598V228.4H252.898V125.2Z" fill="#00DD00"/>
<path d="M253.999 229.3L252.699 228.5L252.799 228.2L254.099 229L253.999 229.3Z" fill="#00DD00"/>
<path d="M254.198 227H253.898V229.1H254.198V227Z" fill="#00DD00"/>
<path d="M254.498 229.5L253.998 229.3L254.098 229L254.598 229.3L254.498 229.5Z" fill="#00DD00"/>
<path d="M177.498 282.4C177.598 282.5 177.698 282.5 177.798 282.6C177.898 282.6 177.998 282.7 178.098 282.8C178.198 282.8 178.198 282.9 178.298 282.9C178.398 282.9 178.398 283 178.498 283C178.498 283 178.598 283 178.598 283.1H178.698C178.698 283.1 178.698 283.1 178.798 283.1H178.898H178.998C179.098 283.1 179.098 283 179.198 283C206.898 267 234.698 251 262.398 235C262.398 164.8 262.398 94.5 262.398 24.3C262.398 24.2 262.398 24.2 262.398 24.1V24C262.398 24 262.398 23.9 262.298 23.9C262.298 23.9 262.298 23.9 262.198 23.8H262.098C262.098 23.8 261.998 23.8 261.998 23.7C261.898 23.7 261.898 23.6 261.798 23.6C261.698 23.6 261.698 23.5 261.598 23.5C261.498 23.5 261.398 23.4 261.298 23.3C261.198 23.2 261.098 23.2 260.998 23.1C260.898 22.9 260.798 22.7 260.698 22.5C262.598 19.3 263.698 17.3 265.598 14V236.8L171.898 291V68.5C174.098 69.8 175.298 70.1 177.498 71.4V282.4C177.798 282.4 177.298 282.5 177.498 282.4Z" fill="url(#paint0_linear_2_24124)"/>
<path d="M262.6 15.2L262.1 15.5C261.6 15.2 261.6 15.2 261.1 14.9C261.6 14 262.1 13.1 262.6 12.2V15.2Z" fill="url(#paint1_linear_2_24124)"/>
<path d="M75.5 122.1L261 15C261.5 15.3 261.5 15.3 262 15.6L171.3 67.9L76.4 122.7C76 122.4 76 122.4 75.5 122.1Z" fill="url(#paint2_linear_2_24124)"/>
<path d="M260.498 11.1L166.798 65.2001L71.8984 120L71.3984 119.7L166.298 64.9001L256.998 12.6L259.998 10.8L260.498 11.1Z" fill="#C8E9FF"/>
<path d="M68.7988 118.3L254.399 11.1001C254.999 11.5001 255.499 11.7001 255.899 12.0001C256.199 12.2001 256.499 12.4001 256.899 12.6001L166.199 64.9001L71.2988 119.7C70.8988 119.4 69.2988 118.6 68.7988 118.3Z" fill="url(#paint3_linear_2_24124)"/>
<path d="M253.499 40V229.9L188.299 267.5L189.799 262.5L249.899 227.8V43.9L253.499 40Z" fill="url(#paint4_linear_2_24124)"/>
<path d="M249.898 43.8999V227.8C249.598 227.6 249.198 227.4 248.898 227.2V45.5999C249.198 44.9999 249.598 44.3999 249.898 43.8999Z" fill="#4F6A73"/>
<path d="M239.299 51.1L190.799 79.1C190.699 79 190.599 79 190.499 78.9001C190.299 78.8001 189.999 78.6 189.799 78.5L249.899 43.8C249.599 44.4 249.199 45 248.899 45.6L248.199 46L240.199 50.6L239.499 51L239.299 51.1Z" fill="#4F6A73"/>
<path d="M249.899 227.8L189.799 262.5C190.099 261.9 190.499 261.3 190.799 260.7L248.799 227.2C249.199 227.4 249.599 227.6 249.899 227.8Z" fill="#4F6A73"/>
<path opacity="0.3" d="M248.898 45.6001V227.2L190.898 260.7V250.7L240.198 222.2V50.6001L248.198 46.0001L248.898 45.6001Z" fill="#A7D0ED"/>
<path d="M240.2 50.6001V222.2C239.8 222 239.9 222 239.5 221.8V51.0001L240.2 50.6001Z" fill="#4F6A73"/>
<path d="M240.199 222.2L190.799 250.7V249.9L239.499 221.8C239.899 222 239.799 222 240.199 222.2Z" fill="#4F6A73"/>
<path d="M239.399 221.7C239.299 221.7 239.299 221.7 239.399 221.7C239.299 221.7 239.299 221.7 239.399 221.7C239.399 165.4 239.399 107.4 239.399 51.1L239.599 51V221.8C239.499 221.8 239.499 221.8 239.399 221.7C239.499 221.8 239.399 221.8 239.399 221.7Z" fill="url(#paint5_linear_2_24124)"/>
<path opacity="0.3" d="M190.898 79.1001L239.398 51.1001C239.398 107.4 239.398 165.4 239.398 221.6C223.798 230.6 206.598 240.6 190.898 249.6V79.1001Z" fill="#A7D0ED"/>
<path d="M239.499 221.8L190.799 249.9V249.7C206.399 240.7 223.599 230.7 239.299 221.7C239.399 221.8 239.499 221.8 239.499 221.8Z" fill="url(#paint6_linear_2_24124)"/>
<path opacity="0.3" d="M157.6 87.5V282.7L86.5 323.8V313.8L149 277.7V92.5L156.9 87.9L157.6 87.5Z" fill="#A7D0ED"/>
<path d="M149.001 92.5V277.8C148.601 277.6 148.701 277.6 148.301 277.4V92.9L149.001 92.5Z" fill="#4F6A73"/>
<path d="M149 277.7L86.5996 313.7V313L148.3 277.4C148.6 277.5 148.6 277.5 149 277.7Z" fill="#4F6A73"/>
<path d="M148.1 277.2C148.1 220.9 148.1 149.2 148.1 92.9L148.3 92.8V277.3C148.2 277.3 148.2 277.3 148.1 277.2C148.2 277.3 148.2 277.3 148.1 277.2C148.2 277.3 148.1 277.3 148.1 277.2C148.1 277.3 148.1 277.2 148.1 277.2Z" fill="url(#paint7_linear_2_24124)"/>
<path opacity="0.3" d="M86.5 128.5L148.1 93C148.1 149.3 148.1 221 148.1 277.2C132.5 286.2 102.2 303.7 86.6 312.7V128.5H86.5Z" fill="#A7D0ED"/>
<path d="M148.3 277.3L86.5 313V312.8C102.1 303.8 132.4 286.3 148 277.3C148.2 277.3 148.2 277.3 148.3 277.3C148.2 277.3 148.2 277.3 148.3 277.3Z" fill="url(#paint8_linear_2_24124)"/>
<path d="M190.598 79.0001C190.398 78.9001 190.098 78.7001 189.898 78.6001V172V174.2V261.2V262.4C190.198 261.8 190.598 261.2 190.898 260.6V259.8V250.6V249.8V249.6V175V173.8V79.1001C190.798 79.1001 190.698 79.0001 190.598 79.0001Z" fill="#4F6A73"/>
<path d="M184 183.1C184.1 183.1 184.1 183.2 184 183.1C184.1 183.2 184.1 183.1 184 183.1Z" fill="#DEC738"/>
<path d="M265.1 13.8L262.6 15.3L262.1 15.6L171.4 67.9001L76.5 122.7L77 123L86.3 128.4L150 91.6L150.2 91.5L162.6 84.3C164.1 81.7001 165.6 79.2001 167 76.6C168.6 73.8 170.3 71.3001 171.9 68.4001L175.3 70.3L177.5 71.3001L261 23.2C262.9 20 263.7 17.3 265.6 14.1L265.1 13.8Z" fill="url(#paint9_linear_2_24124)"/>
<path d="M150.198 91.4999L149.998 91.5999L86.3984 128.3V329.5C86.6984 326.9 86.5984 324.9 86.5984 324.9C86.5984 324.6 86.5984 324.4 86.5984 324.1C86.5984 321.1 86.5984 318.1 86.5984 315.1C86.5984 315 86.5984 315 86.5984 314.9C86.5984 251.8 86.5984 191.9 86.5984 128.5C107.698 116.3 128.898 104.1 149.998 91.8999C150.098 91.8999 150.098 91.7999 150.198 91.7999C152.798 90.2999 155.398 88.7999 157.998 87.2999C158.198 87.1999 158.498 86.9999 158.698 86.8999C159.798 86.1999 160.998 85.5999 162.098 84.8999C162.198 84.8999 162.198 84.7999 162.298 84.7999C162.398 84.6999 162.398 84.6999 162.498 84.5999C162.498 84.4999 162.598 84.4999 162.598 84.3999L150.198 91.4999Z" fill="url(#paint10_linear_2_24124)"/>
<path d="M86.3 128.4L76.5 122.7V342V342.5V345.5L77 345.8L86.3 329.6V128.4Z" fill="url(#paint11_linear_2_24124)"/>
<path d="M76.5 122.7V342C76 341.7 76 341.7 75.5 341.4V122.1C76 122.4 76 122.4 76.5 122.7Z" fill="url(#paint12_linear_2_24124)"/>
<path d="M73.8984 121.2V344L73.3984 343.7V342V340.2V120.9L73.8984 121.2Z" fill="url(#paint13_linear_2_24124)"/>
<path d="M71.3984 119.7V339C70.9984 338.8 70.6984 338.6 70.3984 338.4C69.8984 338.1 69.4984 337.9 68.8984 337.5V118.3C69.2984 118.6 70.8984 119.4 71.3984 119.7Z" fill="url(#paint14_linear_2_24124)"/>
<path d="M158.6 283.3L86.5 325V323.8L157.6 282.7L158.6 283.3Z" fill="#4F6A73"/>
<path d="M179.6 72.5999C186.4 68.3999 193.1 64.2999 200 60.1999L220.5 48.1999L241.2 36.3999C248.1 32.4999 255.1 28.6999 262.1 24.8999C255.4 29.0999 248.6 33.1999 241.7 37.2999L221.2 49.2999L200.5 61.0999C193.6 65.0999 186.6 68.8999 179.6 72.5999Z" fill="white"/>
<path d="M162.598 285.6C156.498 289.6 150.198 293.5 143.898 297.3C137.598 301.1 131.298 304.8 124.998 308.5C118.598 312.1 112.298 315.8 105.798 319.3C99.3984 322.8 92.8984 326.3 86.3984 329.6C92.4984 325.6 98.7984 321.7 105.098 317.9C111.398 314.1 117.698 310.4 123.998 306.7C130.398 303.1 136.698 299.4 143.198 295.9C149.498 292.4 155.998 288.9 162.598 285.6Z" fill="white"/>
<path d="M262.4 235C262.3 235 262.3 235 262.4 235C262.3 235 262.3 235 262.4 235C262.3 235 262.3 235 262.4 235C262.3 235 262.3 235 262.4 235C262.3 234.9 262.3 234.9 262.4 235C262.3 234.9 262.3 234.9 262.4 235C262.3 234.9 262.3 234.9 262.3 234.9C262.3 234.9 262.3 234.9 262.2 234.9L253.5 229.9L249.9 227.8L189.8 262.5L188.3 267.5C185.4 272.5 182.5 277.5 179.6 282.5C179.6 282.6 179.5 282.6 179.5 282.7C179.5 282.8 179.4 282.8 179.3 282.9C179.2 283 179.2 283 179.1 283C206.9 267 234.6 251 262.4 235Z" fill="url(#paint15_linear_2_24124)"/>
<path d="M262.4 24.3C262.4 24.4 262.4 24.5 262.4 24.5C262.4 24.6 262.4 24.7001 262.3 24.7001C262.3 24.8001 262.2 24.8 262.2 24.9C259.3 29.9 256.4 34.9001 253.5 39.9001V229.7L262.2 234.7C262.2 234.7 262.2 234.7 262.3 234.7C262.4 164.8 262.4 94.5 262.4 24.3Z" fill="url(#paint16_linear_2_24124)"/>
<path d="M189.8 78.5L188.3 77.6C188.1 77.5 188 77.4 187.8 77.3C185.1 75.7 182.4 74.2 179.6 72.6C179.6 72.6 179.5 72.6 179.5 72.5C179.5 72.5 179.4 72.4 179.3 72.4C179.2 72.4 179.2 72.3 179.1 72.3C179 72.3 179 72.2 178.9 72.2L178.8 72.1L178.7 72H178.6H178.5C178.5 72 178.4 71.9 178.3 71.9C178.3 71.9 178.2 71.9 178.2 71.8C178.2 71.8 178.1 71.8 178.1 71.7C177.9 71.6 177.7 71.5 177.5 71.3V282.3C177.6 282.4 177.7 282.4 177.8 282.5C177.9 282.5 178 282.6 178.1 282.7C178.2 282.7 178.2 282.8 178.3 282.8C178.4 282.8 178.4 282.9 178.5 282.9C178.5 282.9 178.6 282.9 178.6 283H178.7C178.7 283 178.7 283 178.8 283H178.9H179C179.1 283 179.1 282.9 179.2 282.9C179.3 282.9 179.3 282.8 179.4 282.8C179.5 282.7 179.5 282.7 179.6 282.6C179.6 282.5 179.7 282.5 179.7 282.4C182.6 277.4 185.5 272.4 188.4 267.4L189.9 262.4V78.5H189.8Z" fill="url(#paint17_linear_2_24124)"/>
<path d="M249.899 43.9L253.499 40L188.299 77.7L189.799 78.5L249.899 43.9Z" fill="url(#paint18_linear_2_24124)"/>
<path d="M262.298 24.1001V24.0001C262.298 24.0001 262.298 23.9001 262.198 23.9001C262.198 23.9001 262.198 23.9001 262.098 23.8001H261.998C261.998 23.8001 261.898 23.8001 261.898 23.7001C261.798 23.7001 261.798 23.6001 261.698 23.6001C261.598 23.6001 261.598 23.5001 261.498 23.5001C261.398 23.5001 261.298 23.4001 261.198 23.3001C261.098 23.2001 260.998 23.2001 260.898 23.1001L177.398 71.3001C177.598 71.4001 177.798 71.5001 177.998 71.7001C177.998 71.7001 178.098 71.7001 178.098 71.8001C178.098 71.8001 178.198 71.8001 178.198 71.9001C178.198 71.9001 178.298 72.0001 178.398 72.0001H178.498C178.498 72.0001 178.498 72.0001 178.598 72.0001C178.598 72.0001 178.698 72.0001 178.698 72.1001L178.798 72.2001C178.898 72.2001 178.898 72.3001 178.998 72.3001C179.098 72.3001 179.098 72.4001 179.198 72.4001C179.298 72.4001 179.298 72.5001 179.398 72.5001L179.498 72.6001C182.198 74.2001 184.898 75.7001 187.698 77.3001C187.898 77.4001 187.998 77.5001 188.198 77.6001L253.498 40.0001C256.398 35.0001 259.298 30.0001 262.198 25.0001C262.198 24.9001 262.298 24.9001 262.298 24.8001C262.298 24.7001 262.398 24.7001 262.398 24.6001C262.398 24.5001 262.398 24.4001 262.398 24.4001C262.398 24.2001 262.398 24.2001 262.298 24.1001Z" fill="url(#paint19_linear_2_24124)"/>
<path d="M189.799 78.5L249.899 43.8L189.799 78.5Z" fill="url(#paint20_linear_2_24124)"/>
<path d="M166.999 76.7C165.499 79.3 163.999 81.8 162.599 84.4C162.599 84.5 162.499 84.5 162.499 84.6C162.499 84.7 162.399 84.7 162.299 84.8C162.199 84.9 162.199 84.9 162.099 84.9C160.999 85.6 159.799 86.2 158.699 86.9V283.4L162.599 285.7L171.899 291.1V68.5C170.299 71.3 168.599 73.8 166.999 76.7Z" fill="url(#paint21_linear_2_24124)"/>
<path d="M162.6 285.6L158.7 283.3L157.7 283.9L86.7 324.9C86.7 324.9 86.8 327 86.5 329.5L77 345.8L171.9 291L162.6 285.6Z" fill="url(#paint22_linear_2_24124)"/>
<path d="M75.5 122.1V341.4C75 342.3 74.5 343.2 74 344.1V121.2L75.5 122.1Z" fill="url(#paint23_linear_2_24124)"/>
<path d="M158.6 86.8999V283.3L157.6 282.7V87.4999L158.6 86.8999Z" fill="#4F6A73"/>
<path d="M73.8984 121.2L75.3984 122.1L260.998 15C261.498 14.1 261.998 13.2 262.498 12.3L168.798 66.4001L73.8984 121.2Z" fill="url(#paint24_linear_2_24124)"/>
<path d="M168.798 66.4L262.598 12.3L262.098 12L260.498 12.9L168.298 66.1L73.3984 120.9L73.8984 121.2L168.798 66.4Z" fill="url(#paint25_linear_2_24124)"/>
<path d="M71.8984 120V342.8L71.3984 342.5V340.8V339V119.7L71.8984 120Z" fill="url(#paint26_linear_2_24124)"/>
<path d="M73.3984 120.9V340.2C72.8984 341.1 72.3984 342 71.8984 342.9V120L73.3984 120.9Z" fill="url(#paint27_linear_2_24124)"/>
<path d="M71.8984 120L73.3984 120.9L260.498 12.9001V11.1001L166.798 65.2001L71.8984 120Z" fill="url(#paint28_linear_2_24124)"/>
<path d="M166.798 65.2001L260.498 11.1L259.998 10.8L258.498 11.7L166.298 64.9001L71.3984 119.7L71.8984 120L166.798 65.2001Z" fill="url(#paint29_linear_2_24124)"/>
<path d="M255.898 11.9999C255.898 11.9999 254.898 11.3999 254.398 11.0999C254.898 10.1999 255.398 9.2999 255.898 8.3999V11.9999Z" fill="url(#paint30_linear_2_24124)"/>
<path d="M67.2988 117.4V340.2L66.7988 339.9V338.1V336.4V117.1L67.2988 117.4Z" fill="url(#paint31_linear_2_24124)"/>
<path d="M68.7988 118.3V337.6C68.2988 338.5 67.7988 339.4 67.2988 340.3V117.4L68.7988 118.3Z" fill="url(#paint32_linear_2_24124)"/>
<path d="M67.2988 117.4L68.7988 118.3L254.399 11.0999C254.899 10.1999 255.399 9.2999 255.899 8.3999L162.199 62.4999L67.2988 117.4Z" fill="url(#paint33_linear_2_24124)"/>
<path d="M162.199 62.5999L255.899 8.49995L255.399 8.19995L253.899 9.09995L161.699 62.2999L66.7988 117.1L67.2988 117.4L162.199 62.5999Z" fill="url(#paint34_linear_2_24124)"/>
<path d="M65.2992 116.2V339L64.6992 338.7V337V335.2V115.9L65.2992 116.2Z" fill="url(#paint35_linear_2_24124)"/>
<path d="M66.7988 117.1V338.1L65.2988 339V116.2L66.7988 117.1Z" fill="url(#paint36_linear_2_24124)"/>
<path d="M65.2988 116.2L66.7988 117.1L253.899 9.10005V7.30005L160.199 61.4001L65.2988 116.2Z" fill="url(#paint37_linear_2_24124)"/>
<path d="M160.199 61.4L253.899 7.3L253.399 7L251.899 7.9L159.699 61.1L64.6992 115.9L65.2992 116.2L160.199 61.4Z" fill="url(#paint38_linear_2_24124)"/>
<path d="M188.299 267.5C190.999 265.9 193.699 264.3 196.399 262.7L204.499 257.9C209.899 254.7 215.299 251.6 220.799 248.4C226.199 245.3 231.699 242.1 237.099 239L245.299 234.4C247.999 232.9 250.799 231.3 253.499 229.8C250.799 231.4 248.099 233 245.399 234.6L237.299 239.4C231.899 242.6 226.499 245.7 220.999 248.9C215.599 252 210.099 255.2 204.699 258.3L196.499 262.9C193.799 264.4 191.099 266 188.299 267.5Z" fill="white"/>
<path d="M86.5 330.1C89.6 328.2 92.8 326.4 96 324.5L105.5 318.9L124.5 307.8L143.6 296.8L153.2 291.4C156.4 289.6 159.6 287.8 162.8 286C159.7 287.9 156.5 289.7 153.3 291.6L143.8 297.2L124.8 308.3L105.7 319.2L96.1 324.6C92.9 326.5 89.8 328.4 86.5 330.1Z" fill="white"/>
<path d="M262.2 25L251.9 31.1L241.6 37.1L221 49.1L200.4 60.9L190 66.8L179.6 72.6L189.9 66.6L200.2 60.6L220.8 48.6L241.4 36.8L251.8 30.9L262.2 25Z" fill="white"/>
<path d="M265.399 14.6001L241.899 28.2001L218.399 41.9001L171.399 69.0001L124.299 96.1001L100.799 109.6L77.1992 123.1L100.699 109.4L124.099 95.8001L171.099 68.6001L218.199 41.5001L241.799 28.0001L265.399 14.6001Z" fill="white"/>
<path d="M262.098 12.7L238.598 26.3L215.098 40L168.098 67.2L121.098 94.2L97.4984 107.8L73.8984 121.2L97.3984 107.5L120.898 93.9L167.898 66.7L214.998 39.5999L238.498 26.1L262.098 12.7Z" fill="white"/>
<path d="M260.098 11.5L236.598 25.2L213.098 38.8L166.098 66L118.998 93.1L95.4984 106.6L71.8984 120L95.2984 106.4L118.798 92.7L165.798 65.5L212.898 38.5L236.498 24.9L260.098 11.5Z" fill="white"/>
<path d="M255.499 8.80005L231.999 22.5L208.499 36.1L161.499 63.3L114.399 90.4L90.8988 103.9L67.2988 117.4L90.7988 103.7L114.199 90.1L161.199 62.9001L208.299 35.8L231.899 22.3L255.499 8.80005Z" fill="white"/>
<path d="M253.399 7.69995L229.999 21.3L206.499 35L159.499 62.2L112.399 89.2L88.7988 102.7L65.2988 116.2L88.6988 102.5L112.199 88.9L159.199 61.7L206.299 34.6L229.799 21.1L253.399 7.69995Z" fill="white"/>
<path d="M245.198 47.7002V225C244.898 224.8 244.298 224.4 243.898 224.2V48.5002L245.198 47.7002Z" fill="#4F6A73"/>
<path d="M245.199 225.1L190.799 256.5V255L243.899 224.4C244.299 224.5 244.899 224.9 245.199 225.1Z" fill="#4F6A73"/>
<path d="M248.899 45.6001V227.2L248.199 226.8V46.0001L248.899 45.6001Z" fill="#6FB2C2"/>
<path d="M248.898 227.2L190.898 260.7V259.9L248.198 226.8L248.898 227.2Z" fill="#6FB2C2"/>
<path d="M248.199 46V226.8C247.199 226.2 245.199 225.1 245.199 225.1V47.7L248.199 46Z" fill="url(#paint39_linear_2_24124)"/>
<path d="M243.898 48.5V224.3C242.898 223.7 240.898 222.6 240.898 222.6V50.2L243.898 48.5Z" fill="url(#paint40_linear_2_24124)"/>
<path d="M244.898 224.9L190.898 256.1V255.3L244.298 224.5L244.898 224.9Z" fill="#6FB2C2"/>
<path d="M244.899 47.9001V224.9L244.299 224.5V48.3001L244.899 47.9001Z" fill="#6FB2C2"/>
<path d="M243.898 224.3L190.898 255V251.5L240.898 222.6C241.898 223.2 242.898 223.8 243.898 224.3Z" fill="url(#paint41_linear_2_24124)"/>
<path d="M248.198 226.8L190.898 259.9V256.4L245.198 225.1L248.198 226.8Z" fill="url(#paint42_linear_2_24124)"/>
<path d="M240.899 50.2002V222.6L240.199 222.2V50.6002L240.899 50.2002Z" fill="#6FB2C2"/>
<path d="M240.898 222.6L190.898 251.5V250.7L240.198 222.2L240.898 222.6Z" fill="#6FB2C2"/>
<path d="M153.999 89.6001V280.6C153.699 280.4 153.099 280 152.699 279.8V90.3001L153.999 89.6001Z" fill="#4F6A73"/>
<path d="M153.9 280.6L86.5 319.5V318L152.6 279.8C153 280.1 153.6 280.4 153.9 280.6Z" fill="#4F6A73"/>
<path d="M157.6 87.5V282.7L157 282.4V87.8L157.6 87.5Z" fill="#6FB2C2"/>
<path d="M157.6 282.7L86.5 323.8V323L157 282.4L157.6 282.7Z" fill="#6FB2C2"/>
<path d="M157 87.8V282.3C156 281.7 154 280.6 154 280.6V89.6L157 87.8Z" fill="url(#paint43_linear_2_24124)"/>
<path d="M152.699 90.3V279.8C151.699 279.2 149.699 278.1 149.699 278.1V92.1L152.699 90.3Z" fill="url(#paint44_linear_2_24124)"/>
<path d="M153.6 280.4L86.5 319.2V318.4L153 280L153.6 280.4Z" fill="#6FB2C2"/>
<path d="M153.7 89.7L153.6 280.4L153 280V90.1L153.7 89.7Z" fill="#6FB2C2"/>
<path d="M152.6 279.9L86.5 318V314.5L149.6 278.1C150.6 278.7 151.6 279.3 152.6 279.9Z" fill="url(#paint45_linear_2_24124)"/>
<path d="M157 282.4L86.5 323V319.5L153.9 280.6L157 282.4Z" fill="url(#paint46_linear_2_24124)"/>
<path d="M149.6 92.1001V278.1L149 277.7V92.5001L149.6 92.1001Z" fill="#6FB2C2"/>
<path d="M149.6 278.1L86.5 314.6V313.8L149 277.7L149.6 278.1Z" fill="#6FB2C2"/>
<path opacity="0.25" d="M248.898 45.6001V227.2L190.898 260.7V79.1001L242.598 49.3001L245.398 47.6001L248.898 45.6001Z" fill="#0C97F5"/>
<path opacity="0.25" d="M245.398 47.6001V225.2L190.898 256.7V79.1001L242.598 49.3001L245.398 47.6001Z" fill="#0C97F5"/>
<path opacity="0.25" d="M242.598 49.3V223.5L190.898 253.4V79.1L242.598 49.3Z" fill="#0C97F5"/>
<path opacity="0.25" d="M157.6 87.6001V282.7L86.5 323.7V128.6L151.3 91.3001L154.1 89.7001L157.6 87.6001Z" fill="#0C97F5"/>
<path opacity="0.25" d="M154.1 89.7002V280.7L86.5 319.6V128.6L151.3 91.3002L154.1 89.7002Z" fill="#0C97F5"/>
<path opacity="0.25" d="M151.3 91.3V279.1L86.5 316.4V128.6L151.3 91.3Z" fill="#0C97F5"/>
<path fill-rule="evenodd" clip-rule="evenodd" d="M308.715 98.4954C309.325 99.0557 309.365 100.005 308.805 100.615L245.583 169.45L299.255 222.534C299.844 223.116 299.849 224.066 299.267 224.655C298.684 225.244 297.734 225.249 297.145 224.667L242.445 170.567C241.872 169.999 241.849 169.08 242.395 168.485L306.595 98.5854C307.156 97.9753 308.105 97.935 308.715 98.4954Z" fill="#FF6700"/>
<path d="M305.701 230.9C300.901 228.7 294.301 226.6 289.301 226.3L297.201 222.5L300.901 214.5C301.301 219.6 303.501 226.2 305.701 230.9Z" fill="#FF6700"/>
<path fill-rule="evenodd" clip-rule="evenodd" d="M297.114 88.4959C297.724 89.0566 297.764 90.0055 297.203 90.6153L221.781 172.652L299.256 249.535C299.844 250.119 299.847 251.069 299.264 251.657C298.68 252.245 297.731 252.248 297.143 251.665L218.643 173.765C218.07 173.197 218.049 172.278 218.595 171.685L294.995 88.5849C295.556 87.975 296.505 87.9352 297.114 88.4959Z" fill="#FF6700"/>
<path d="M305.699 257.9C300.899 255.7 294.299 253.6 289.299 253.3L297.299 249.5L300.999 241.5C301.299 246.6 303.399 253.2 305.699 257.9Z" fill="#FF6700"/>
<path fill-rule="evenodd" clip-rule="evenodd" d="M290.414 72.3951C291.024 72.9553 291.065 73.9042 290.505 74.5145L196.18 177.252L299.357 279.736C299.944 280.32 299.948 281.269 299.364 281.857C298.78 282.445 297.83 282.448 297.243 281.864L193.043 178.364C192.471 177.797 192.45 176.879 192.995 176.286L288.295 72.4856C288.855 71.8753 289.804 71.8348 290.414 72.3951Z" fill="#FF6700"/>
<path d="M305.8 288.2C301 286 294.4 283.9 289.4 283.6L297.4 279.8L301.1 271.8C301.4 276.9 303.5 283.4 305.8 288.2Z" fill="#FF6700"/>
<path d="M364.799 61.3999C347.199 64.1999 346.699 66.4999 362.199 75.2999C344.999 70.8999 343.699 72.7999 354.799 86.6999C340.499 76.0999 338.599 77.3999 343.599 94.4999C334.299 79.2999 331.999 79.7999 329.799 97.4999C326.999 79.8999 324.699 79.3999 315.899 94.8999C320.299 77.6999 318.399 76.3999 304.499 87.4999C315.099 73.1999 313.799 71.2999 296.699 76.2999C311.899 66.9999 311.399 64.6999 293.699 62.4999C311.299 59.6999 311.799 57.3999 296.299 48.5999C313.499 52.9999 314.799 51.0999 303.699 37.1999C317.999 47.7999 319.899 46.4999 314.899 29.3999C324.199 44.5999 326.499 44.0999 328.699 26.3999C331.499 43.9999 333.799 44.4999 342.599 28.9999C338.199 46.1999 340.099 47.4999 353.999 36.3999C343.399 50.6999 344.699 52.5999 361.799 47.5999C346.599 56.7999 347.099 59.1999 364.799 61.3999Z" fill="#FFC400"/>
<path d="M329.626 81.5993C340.504 81.4241 349.182 72.4629 349.006 61.584C348.831 50.7051 339.87 42.028 328.991 42.2032C318.112 42.3785 309.435 51.3396 309.61 62.2185C309.785 73.0975 318.747 81.7745 329.626 81.5993Z" fill="#FFC400"/>
<path fill-rule="evenodd" clip-rule="evenodd" d="M329.039 45.2298C319.832 45.3781 312.488 52.9624 312.636 62.1697C312.785 71.377 320.369 78.7208 329.576 78.5725C338.783 78.4242 346.127 70.84 345.979 61.6326C345.831 52.4253 338.246 45.0815 329.039 45.2298ZM306.583 62.2672C306.381 49.7167 316.391 39.3786 328.942 39.1764C341.492 38.9743 351.83 48.9846 352.032 61.5351C352.234 74.0857 342.224 84.4237 329.674 84.6259C317.123 84.8281 306.785 74.8177 306.583 62.2672Z" fill="white"/>
<path d="M340.898 201.6V136.6C340.898 134.6 339.298 132.9 337.198 132.9C335.198 132.9 333.498 134.5 333.498 136.6V201.6C329.998 203.1 327.498 206.5 327.498 210.6C327.498 216 331.798 220.3 337.198 220.3C342.598 220.3 346.898 216 346.898 210.6C346.798 206.5 344.398 203.1 340.898 201.6Z" fill="url(#paint47_linear_2_24124)"/>
<path d="M365.799 211.2H356.599C356.399 211.2 356.299 211 356.299 210.7C356.299 210.4 356.399 210.2 356.599 210.2H365.799C365.999 210.2 366.099 210.4 366.099 210.7C366.099 211 365.999 211.2 365.799 211.2Z" fill="#B0B0B0"/>
<path d="M361.699 206.5H356.599C356.399 206.5 356.299 206.3 356.299 206C356.299 205.7 356.399 205.5 356.599 205.5H361.699C361.899 205.5 361.999 205.7 361.999 206C361.999 206.2 361.899 206.5 361.699 206.5Z" fill="#B0B0B0"/>
<path d="M361.699 201.7H356.599C356.399 201.7 356.299 201.5 356.299 201.2C356.299 200.9 356.399 200.7 356.599 200.7H361.699C361.899 200.7 361.999 200.9 361.999 201.2C361.999 201.5 361.899 201.7 361.699 201.7Z" fill="#B0B0B0"/>
<path d="M361.699 196.9H356.599C356.399 196.9 356.299 196.7 356.299 196.4C356.299 196.1 356.399 195.9 356.599 195.9H361.699C361.899 195.9 361.999 196.1 361.999 196.4C361.999 196.7 361.899 196.9 361.699 196.9Z" fill="#B0B0B0"/>
<path d="M365.799 192.1H356.599C356.399 192.1 356.299 191.9 356.299 191.6C356.299 191.3 356.399 191.1 356.599 191.1H365.799C365.999 191.1 366.099 191.3 366.099 191.6C366.099 191.9 365.999 192.1 365.799 192.1Z" fill="#B0B0B0"/>
<path d="M361.699 187.4H356.599C356.399 187.4 356.299 187.2 356.299 186.9C356.299 186.6 356.399 186.4 356.599 186.4H361.699C361.899 186.4 361.999 186.6 361.999 186.9C361.999 187.1 361.899 187.4 361.699 187.4Z" fill="#B0B0B0"/>
<path d="M361.699 182.6H356.599C356.399 182.6 356.299 182.4 356.299 182.1C356.299 181.8 356.399 181.6 356.599 181.6H361.699C361.899 181.6 361.999 181.8 361.999 182.1C361.999 182.4 361.899 182.6 361.699 182.6Z" fill="#B0B0B0"/>
<path d="M361.699 177.8H356.599C356.399 177.8 356.299 177.6 356.299 177.3C356.299 177 356.399 176.8 356.599 176.8H361.699C361.899 176.8 361.999 177 361.999 177.3C361.999 177.6 361.899 177.8 361.699 177.8Z" fill="#B0B0B0"/>
<path d="M365.599 173.2H356.799C356.499 173.2 356.299 173 356.299 172.7C356.299 172.4 356.499 172.2 356.799 172.2H365.599C365.899 172.2 366.099 172.4 366.099 172.7C366.099 173 365.899 173.2 365.599 173.2Z" fill="#B0B0B0"/>
<path d="M361.699 168.6H356.599C356.399 168.6 356.299 168.4 356.299 168.1C356.299 167.8 356.399 167.6 356.599 167.6H361.699C361.899 167.6 361.999 167.8 361.999 168.1C361.999 168.4 361.899 168.6 361.699 168.6Z" fill="#B0B0B0"/>
<path d="M361.699 164H356.599C356.399 164 356.299 163.8 356.299 163.5C356.299 163.2 356.399 163 356.599 163H361.699C361.899 163 361.999 163.2 361.999 163.5C361.999 163.7 361.899 164 361.699 164Z" fill="#B0B0B0"/>
<path d="M361.699 159.4H356.599C356.399 159.4 356.299 159.2 356.299 158.9C356.299 158.6 356.399 158.4 356.599 158.4H361.699C361.899 158.4 361.999 158.6 361.999 158.9C361.999 159.1 361.899 159.4 361.699 159.4Z" fill="#B0B0B0"/>
<path d="M365.799 154.7H356.599C356.399 154.7 356.299 154.5 356.299 154.2C356.299 153.9 356.399 153.7 356.599 153.7H365.799C365.999 153.7 366.099 153.9 366.099 154.2C366.099 154.5 365.999 154.7 365.799 154.7Z" fill="#B0B0B0"/>
<path d="M365.799 136.3H356.599C356.399 136.3 356.299 136.1 356.299 135.8C356.299 135.5 356.399 135.3 356.599 135.3H365.799C365.999 135.3 366.099 135.5 366.099 135.8C366.099 136.1 365.999 136.3 365.799 136.3Z" fill="#B0B0B0"/>
<path d="M361.699 150.1H356.599C356.399 150.1 356.299 149.9 356.299 149.6C356.299 149.3 356.399 149.1 356.599 149.1H361.699C361.899 149.1 361.999 149.3 361.999 149.6C361.999 149.9 361.899 150.1 361.699 150.1Z" fill="#B0B0B0"/>
<path d="M361.699 145.5H356.599C356.399 145.5 356.299 145.3 356.299 145C356.299 144.7 356.399 144.5 356.599 144.5H361.699C361.899 144.5 361.999 144.7 361.999 145C361.999 145.3 361.899 145.5 361.699 145.5Z" fill="#B0B0B0"/>
<path d="M361.499 140.9H356.799C356.499 140.9 356.299 140.7 356.299 140.4C356.299 140.1 356.499 139.9 356.799 139.9H361.499C361.799 139.9 361.999 140.1 361.999 140.4C361.999 140.7 361.799 140.9 361.499 140.9Z" fill="#B0B0B0"/>
<path d="M346.799 197V134.5C346.799 129.3 342.499 125 337.199 125C331.899 125 327.599 129.3 327.599 134.5V197C323.499 199.9 320.799 204.7 320.799 210C320.799 218.9 328.199 226.1 337.199 226.1C346.199 226.1 353.599 218.9 353.599 210C353.599 204.7 350.899 199.9 346.799 197Z" fill="#E6E6E6"/>
<path d="M340.898 201.6V196.4V187.4V177.3V168.1V159.4V149.7H333.498V159.4V168.1V177.3V187.4V196.4V201.6C329.998 203.1 327.498 206.5 327.498 210.6C327.498 216 331.798 220.3 337.198 220.3C342.598 220.3 346.898 216 346.898 210.6C346.798 206.5 344.398 203.1 340.898 201.6Z" fill="url(#paint48_linear_2_24124)"/>
<path d="M337.198 132.9C335.198 132.9 333.498 134.5 333.498 136.6V140.4V149.6H340.898V140.4V136.6C340.898 134.6 339.198 132.9 337.198 132.9Z" fill="white"/>
<path d="M20.0992 205.2V140.2C20.0992 138.2 18.4992 136.5 16.3992 136.5C14.3992 136.5 12.6992 138.1 12.6992 140.2V205.2C9.19922 206.7 6.69922 210.1 6.69922 214.2C6.69922 219.6 10.9992 223.9 16.3992 223.9C21.7992 223.9 26.0992 219.6 26.0992 214.2C26.0992 210.2 23.5992 206.7 20.0992 205.2Z" fill="url(#paint49_linear_2_24124)"/>
<path d="M45.0996 214.8H35.8996C35.6996 214.8 35.5996 214.6 35.5996 214.3C35.5996 214 35.6996 213.8 35.8996 213.8H45.0996C45.2996 213.8 45.3996 214 45.3996 214.3C45.3996 214.6 45.1996 214.8 45.0996 214.8Z" fill="#B0B0B0"/>
<path d="M40.9996 210.1H35.8996C35.6996 210.1 35.5996 209.9 35.5996 209.6C35.5996 209.3 35.6996 209.1 35.8996 209.1H40.9996C41.1996 209.1 41.2996 209.3 41.2996 209.6C41.2996 209.8 41.0996 210.1 40.9996 210.1Z" fill="#B0B0B0"/>
<path d="M40.9996 205.3H35.8996C35.6996 205.3 35.5996 205.1 35.5996 204.8C35.5996 204.5 35.6996 204.3 35.8996 204.3H40.9996C41.1996 204.3 41.2996 204.5 41.2996 204.8C41.2996 205.1 41.0996 205.3 40.9996 205.3Z" fill="#B0B0B0"/>
<path d="M40.9996 200.5H35.8996C35.6996 200.5 35.5996 200.3 35.5996 200C35.5996 199.7 35.6996 199.5 35.8996 199.5H40.9996C41.1996 199.5 41.2996 199.7 41.2996 200C41.2996 200.3 41.0996 200.5 40.9996 200.5Z" fill="#B0B0B0"/>
<path d="M45.0996 195.8H35.8996C35.6996 195.8 35.5996 195.6 35.5996 195.3C35.5996 195 35.6996 194.8 35.8996 194.8H45.0996C45.2996 194.8 45.3996 195 45.3996 195.3C45.3996 195.5 45.1996 195.8 45.0996 195.8Z" fill="#B0B0B0"/>
<path d="M40.9996 191H35.8996C35.6996 191 35.5996 190.8 35.5996 190.5C35.5996 190.2 35.6996 190 35.8996 190H40.9996C41.1996 190 41.2996 190.2 41.2996 190.5C41.2996 190.8 41.0996 191 40.9996 191Z" fill="#B0B0B0"/>
<path d="M40.9996 186.2H35.8996C35.6996 186.2 35.5996 186 35.5996 185.7C35.5996 185.4 35.6996 185.2 35.8996 185.2H40.9996C41.1996 185.2 41.2996 185.4 41.2996 185.7C41.2996 186 41.0996 186.2 40.9996 186.2Z" fill="#B0B0B0"/>
<path d="M40.9996 181.4H35.8996C35.6996 181.4 35.5996 181.2 35.5996 180.9C35.5996 180.6 35.6996 180.4 35.8996 180.4H40.9996C41.1996 180.4 41.2996 180.6 41.2996 180.9C41.2996 181.2 41.0996 181.4 40.9996 181.4Z" fill="#B0B0B0"/>
<path d="M44.9 176.8H36C35.7 176.8 35.5 176.6 35.5 176.3C35.5 176 35.7 175.8 36 175.8H44.8C45.1 175.8 45.3 176 45.3 176.3C45.4 176.6 45.1 176.8 44.9 176.8Z" fill="#B0B0B0"/>
<path d="M40.9996 172.2H35.8996C35.6996 172.2 35.5996 172 35.5996 171.7C35.5996 171.4 35.6996 171.2 35.8996 171.2H40.9996C41.1996 171.2 41.2996 171.4 41.2996 171.7C41.2996 172 41.0996 172.2 40.9996 172.2Z" fill="#B0B0B0"/>
<path d="M40.9996 167.6H35.8996C35.6996 167.6 35.5996 167.4 35.5996 167.1C35.5996 166.8 35.6996 166.6 35.8996 166.6H40.9996C41.1996 166.6 41.2996 166.8 41.2996 167.1C41.2996 167.4 41.0996 167.6 40.9996 167.6Z" fill="#B0B0B0"/>
<path d="M40.9996 163H35.8996C35.6996 163 35.5996 162.8 35.5996 162.5C35.5996 162.2 35.6996 162 35.8996 162H40.9996C41.1996 162 41.2996 162.2 41.2996 162.5C41.2996 162.7 41.0996 163 40.9996 163Z" fill="#B0B0B0"/>
<path d="M45.0996 158.4H35.8996C35.6996 158.4 35.5996 158.2 35.5996 157.9C35.5996 157.6 35.6996 157.4 35.8996 157.4H45.0996C45.2996 157.4 45.3996 157.6 45.3996 157.9C45.3996 158.1 45.1996 158.4 45.0996 158.4Z" fill="#B0B0B0"/>
<path d="M45.0996 139.9H35.8996C35.6996 139.9 35.5996 139.7 35.5996 139.4C35.5996 139.1 35.6996 138.9 35.8996 138.9H45.0996C45.2996 138.9 45.3996 139.1 45.3996 139.4C45.3996 139.7 45.1996 139.9 45.0996 139.9Z" fill="#B0B0B0"/>
<path d="M40.9996 153.7H35.8996C35.6996 153.7 35.5996 153.5 35.5996 153.2C35.5996 152.9 35.6996 152.7 35.8996 152.7H40.9996C41.1996 152.7 41.2996 152.9 41.2996 153.2C41.2996 153.5 41.0996 153.7 40.9996 153.7Z" fill="#B0B0B0"/>
<path d="M40.9996 149.1H35.8996C35.6996 149.1 35.5996 148.9 35.5996 148.6C35.5996 148.3 35.6996 148.1 35.8996 148.1H40.9996C41.1996 148.1 41.2996 148.3 41.2996 148.6C41.2996 148.9 41.0996 149.1 40.9996 149.1Z" fill="#B0B0B0"/>
<path d="M40.8 144.5H36C35.7 144.5 35.5 144.3 35.5 144C35.5 143.7 35.7 143.5 36 143.5H40.7C41 143.5 41.2 143.7 41.2 144C41.3 144.3 41.1 144.5 40.8 144.5Z" fill="#B0B0B0"/>
<path d="M26.0996 200.8V138.2C26.0996 133 21.7996 128.7 16.4996 128.7C11.1996 128.7 6.89961 133 6.89961 138.2V200.8C2.79961 203.7 0.0996094 208.5 0.0996094 213.9C0.0996094 222.8 7.49961 230 16.4996 230C25.4996 230 32.8996 222.8 32.8996 213.9C32.7996 208.5 30.1996 203.7 26.0996 200.8Z" fill="#E6E6E6"/>
<path d="M20.0992 205.5C20.0992 205.4 20.0992 205.4 20.0992 205.5V200.3V190H12.6992V200.3V205.5C9.19922 207 6.69922 210.4 6.69922 214.5C6.69922 219.9 10.9992 224.2 16.3992 224.2C21.6992 224.2 26.0992 219.9 26.0992 214.5C26.0992 210.4 23.5992 206.9 20.0992 205.5Z" fill="url(#paint50_linear_2_24124)"/>
<path d="M16.3992 136.8C14.3992 136.8 12.6992 138.4 12.6992 140.5V144.3V190H20.0992V144.3V140.5C20.0992 138.4 18.3992 136.8 16.3992 136.8Z" fill="white"/>
</g>
<defs>
<linearGradient id="paint0_linear_2_24124" x1="119.205" y1="152.526" x2="118.983" y2="152.526" gradientUnits="userSpaceOnUse">
<stop offset="0.3052" stop-color="#F1F1F1"/>
<stop offset="0.9377" stop-color="#F1F1F1"/>
<stop offset="0.9666" stop-color="#EAEAEA"/>
<stop offset="0.9915" stop-color="#E8E8E8"/>
</linearGradient>
<linearGradient id="paint1_linear_2_24124" x1="261.042" y1="13.9194" x2="262.57" y2="13.9194" gradientUnits="userSpaceOnUse">
<stop offset="0.0897436" stop-color="#EFEFEF"/>
<stop offset="0.9377" stop-color="#F1F1F1"/>
</linearGradient>
<linearGradient id="paint2_linear_2_24124" x1="75.4582" y1="68.8189" x2="262.061" y2="68.8189" gradientUnits="userSpaceOnUse">
<stop stop-color="#CBCBCB"/>
<stop offset="0.0470085" stop-color="#BBBBBB"/>
</linearGradient>
<linearGradient id="paint3_linear_2_24124" x1="162.791" y1="65.2563" x2="171.2" y2="80.0556" gradientUnits="userSpaceOnUse">
<stop stop-color="#CBCBCB"/>
<stop offset="0.0470085" stop-color="#BBBBBB"/>
</linearGradient>
<linearGradient id="paint4_linear_2_24124" x1="249.793" y1="153.758" x2="261.676" y2="153.758" gradientUnits="userSpaceOnUse">
<stop stop-color="#CBCBCB"/>
<stop offset="0.2841" stop-color="#D8D8D8"/>
<stop offset="0.3317" stop-color="#F1F1F1"/>
<stop offset="0.374" stop-color="#EAEAEA"/>
<stop offset="1" stop-color="#E8E8E8"/>
</linearGradient>
<linearGradient id="paint5_linear_2_24124" x1="239.33" y1="136.418" x2="239.541" y2="136.418" gradientUnits="userSpaceOnUse">
<stop offset="0.3052" stop-color="#F1F1F1"/>
<stop offset="0.9377" stop-color="#F1F1F1"/>
<stop offset="0.9666" stop-color="#EAEAEA"/>
<stop offset="0.9915" stop-color="#E8E8E8"/>
</linearGradient>
<linearGradient id="paint6_linear_2_24124" x1="190.868" y1="235.804" x2="239.538" y2="235.804" gradientUnits="userSpaceOnUse">
<stop offset="0.3052" stop-color="#F1F1F1"/>
<stop offset="0.9377" stop-color="#F1F1F1"/>
<stop offset="0.9666" stop-color="#EAEAEA"/>
<stop offset="0.9915" stop-color="#E8E8E8"/>
</linearGradient>
<linearGradient id="paint7_linear_2_24124" x1="148.061" y1="185.1" x2="148.272" y2="185.1" gradientUnits="userSpaceOnUse">
<stop offset="0.3052" stop-color="#F1F1F1"/>
<stop offset="0.9377" stop-color="#F1F1F1"/>
<stop offset="0.9666" stop-color="#EAEAEA"/>
<stop offset="0.9915" stop-color="#E8E8E8"/>
</linearGradient>
<linearGradient id="paint8_linear_2_24124" x1="86.5465" y1="295.103" x2="148.27" y2="295.103" gradientUnits="userSpaceOnUse">
<stop offset="0.3052" stop-color="#F1F1F1"/>
<stop offset="0.9377" stop-color="#F1F1F1"/>
<stop offset="0.9666" stop-color="#EAEAEA"/>
<stop offset="0.9915" stop-color="#E8E8E8"/>
</linearGradient>
<linearGradient id="paint9_linear_2_24124" x1="171.083" y1="68.4241" x2="175.489" y2="76.0547" gradientUnits="userSpaceOnUse">
<stop stop-color="#CBCBCB"/>
<stop offset="0.0447653" stop-color="#D8D8D8"/>
<stop offset="0.0543346" stop-color="#EFEFEF"/>
<stop offset="0.0610453" stop-color="#F1F1F1"/>
<stop offset="0.9377" stop-color="#F1F1F1"/>
</linearGradient>
<linearGradient id="paint10_linear_2_24124" x1="76.3222" y1="123.631" x2="80.8714" y2="131.51" gradientUnits="userSpaceOnUse">
<stop stop-color="#CBCBCB"/>
<stop offset="0.803" stop-color="#D8D8D8"/>
</linearGradient>
<linearGradient id="paint11_linear_2_24124" x1="76.4797" y1="234.237" x2="86.3335" y2="234.237" gradientUnits="userSpaceOnUse">
<stop stop-color="#CBCBCB"/>
<stop offset="0.0667433" stop-color="#D8D8D8"/>
<stop offset="0.0744763" stop-color="#F1F1F1"/>
<stop offset="0.9377" stop-color="#F1F1F1"/>
<stop offset="0.9666" stop-color="#EAEAEA"/>
<stop offset="0.9915" stop-color="#E8E8E8"/>
<stop offset="1" stop-color="#DADADA"/>
</linearGradient>
<linearGradient id="paint12_linear_2_24124" x1="75.4582" y1="232.028" x2="76.4797" y2="232.028" gradientUnits="userSpaceOnUse">
<stop stop-color="#CBCBCB"/>
<stop offset="0.3512" stop-color="#BBBBBB"/>
</linearGradient>
<linearGradient id="paint13_linear_2_24124" x1="73.4891" y1="232.469" x2="75.7497" y2="232.469" gradientUnits="userSpaceOnUse">
<stop stop-color="#CBCBCB"/>
<stop offset="0.151" stop-color="#D8D8D8"/>
<stop offset="0.1728" stop-color="#F1F1F1"/>
<stop offset="0.9377" stop-color="#F1F1F1"/>
<stop offset="0.9666" stop-color="#EAEAEA"/>
<stop offset="0.9915" stop-color="#E8E8E8"/>
<stop offset="1" stop-color="#DADADA"/>
</linearGradient>
<linearGradient id="paint14_linear_2_24124" x1="67.7969" y1="228.641" x2="76.3674" y2="228.641" gradientUnits="userSpaceOnUse">
<stop stop-color="#CBCBCB"/>
<stop offset="0.3512" stop-color="#BBBBBB"/>
</linearGradient>
<linearGradient id="paint15_linear_2_24124" x1="214.55" y1="248.233" x2="220.593" y2="258.7" gradientUnits="userSpaceOnUse">
<stop stop-color="#CBCBCB"/>
<stop offset="0.2841" stop-color="#D8D8D8"/>
<stop offset="0.3052" stop-color="#F1F1F1"/>
<stop offset="0.9805" stop-color="#F1F1F1"/>
<stop offset="1" stop-color="#EAEAEA"/>
</linearGradient>
<linearGradient id="paint16_linear_2_24124" x1="249.703" y1="129.647" x2="261.878" y2="129.647" gradientUnits="userSpaceOnUse">
<stop stop-color="#CBCBCB"/>
<stop offset="0.2841" stop-color="#D8D8D8"/>
<stop offset="0.3052" stop-color="#F1F1F1"/>
<stop offset="0.9377" stop-color="#F1F1F1"/>
<stop offset="0.991" stop-color="#EAEAEA"/>
<stop offset="1" stop-color="#E8E8E8"/>
</linearGradient>
<linearGradient id="paint17_linear_2_24124" x1="177.517" y1="177.278" x2="189.85" y2="177.278" gradientUnits="userSpaceOnUse">
<stop stop-color="#CBCBCB"/>
<stop offset="0.1864" stop-color="#D8D8D8"/>
<stop offset="0.2076" stop-color="#F1F1F1"/>
<stop offset="0.8693" stop-color="#F1F1F1"/>
<stop offset="0.8822" stop-color="#EAEAEA"/>
</linearGradient>
<linearGradient id="paint18_linear_2_24124" x1="214.983" y1="48.4901" x2="218.331" y2="54.3481" gradientUnits="userSpaceOnUse">
<stop stop-color="#CBCBCB"/>
<stop offset="0.2841" stop-color="#D8D8D8"/>
<stop offset="0.3317" stop-color="#F1F1F1"/>
<stop offset="0.374" stop-color="#EAEAEA"/>
<stop offset="1" stop-color="#E8E8E8"/>
</linearGradient>
<linearGradient id="paint19_linear_2_24124" x1="219.366" y1="46.7711" x2="226.648" y2="59.3837" gradientUnits="userSpaceOnUse">
<stop stop-color="#CBCBCB"/>
<stop offset="0.1669" stop-color="#D8D8D8"/>
<stop offset="0.1917" stop-color="#F1F1F1"/>
<stop offset="0.9377" stop-color="#F1F1F1"/>
<stop offset="0.991" stop-color="#EAEAEA"/>
<stop offset="1" stop-color="#E8E8E8"/>
</linearGradient>
<linearGradient id="paint20_linear_2_24124" x1="219.793" y1="61.0497" x2="219.893" y2="61.223" gradientUnits="userSpaceOnUse">
<stop stop-color="#CBCBCB"/>
<stop offset="0.1669" stop-color="#D8D8D8"/>
<stop offset="0.1917" stop-color="#F1F1F1"/>
<stop offset="0.9377" stop-color="#F1F1F1"/>
<stop offset="0.991" stop-color="#EAEAEA"/>
<stop offset="1" stop-color="#E8E8E8"/>
</linearGradient>
<linearGradient id="paint21_linear_2_24124" x1="158.643" y1="179.743" x2="171.904" y2="179.743" gradientUnits="userSpaceOnUse">
<stop stop-color="#CBCBCB"/>
<stop offset="0.3036" stop-color="#D8D8D8"/>
<stop offset="0.3468" stop-color="#F1F1F1"/>
<stop offset="0.9377" stop-color="#F1F1F1"/>
</linearGradient>
<linearGradient id="paint22_linear_2_24124" x1="117.748" y1="306.783" x2="125.668" y2="320.501" gradientUnits="userSpaceOnUse">
<stop stop-color="#CBCBCB"/>
<stop offset="0.2841" stop-color="#D8D8D8"/>
<stop offset="0.3052" stop-color="#F1F1F1"/>
<stop offset="0.9377" stop-color="#F1F1F1"/>
<stop offset="0.9666" stop-color="#EAEAEA"/>
<stop offset="0.9915" stop-color="#E8E8E8"/>
<stop offset="1" stop-color="#DADADA"/>
</linearGradient>
<linearGradient id="paint23_linear_2_24124" x1="73.4906" y1="232.617" x2="75.7502" y2="232.617" gradientUnits="userSpaceOnUse">
<stop stop-color="#CBCBCB"/>
<stop offset="0.151" stop-color="#D8D8D8"/>
<stop offset="0.1728" stop-color="#F1F1F1"/>
<stop offset="0.9377" stop-color="#F1F1F1"/>
<stop offset="0.9666" stop-color="#EAEAEA"/>
<stop offset="0.9915" stop-color="#E8E8E8"/>
<stop offset="1" stop-color="#DADADA"/>
</linearGradient>
<linearGradient id="paint24_linear_2_24124" x1="168.013" y1="66.3452" x2="170.041" y2="69.8801" gradientUnits="userSpaceOnUse">
<stop stop-color="#CBCBCB"/>
<stop offset="0.0484283" stop-color="#D8D8D8"/>
<stop offset="0.0683713" stop-color="#F1F1F1"/>
<stop offset="0.0897436" stop-color="#EFEFEF"/>
<stop offset="0.9377" stop-color="#F1F1F1"/>
</linearGradient>
<linearGradient id="paint25_linear_2_24124" x1="167.934" y1="66.5072" x2="171.998" y2="73.567" gradientUnits="userSpaceOnUse">
<stop stop-color="#CBCBCB"/>
<stop offset="0.0484283" stop-color="#D8D8D8"/>
<stop offset="0.0683713" stop-color="#F1F1F1"/>
<stop offset="0.0897436" stop-color="#EFEFEF"/>
<stop offset="0.9377" stop-color="#F1F1F1"/>
</linearGradient>
<linearGradient id="paint26_linear_2_24124" x1="71.4487" y1="231.292" x2="73.7093" y2="231.292" gradientUnits="userSpaceOnUse">
<stop stop-color="#CBCBCB"/>
<stop offset="0.151" stop-color="#D8D8D8"/>
<stop offset="0.1728" stop-color="#F1F1F1"/>
<stop offset="0.9377" stop-color="#F1F1F1"/>
<stop offset="0.9666" stop-color="#EAEAEA"/>
<stop offset="0.9915" stop-color="#E8E8E8"/>
<stop offset="1" stop-color="#DADADA"/>
</linearGradient>
<linearGradient id="paint27_linear_2_24124" x1="71.449" y1="231.439" x2="73.7081" y2="231.439" gradientUnits="userSpaceOnUse">
<stop stop-color="#CBCBCB"/>
<stop offset="0.151" stop-color="#D8D8D8"/>
<stop offset="0.1728" stop-color="#F1F1F1"/>
<stop offset="0.9377" stop-color="#F1F1F1"/>
<stop offset="0.9666" stop-color="#EAEAEA"/>
<stop offset="0.9915" stop-color="#E8E8E8"/>
<stop offset="1" stop-color="#DADADA"/>
</linearGradient>
<linearGradient id="paint28_linear_2_24124" x1="165.972" y1="65.1677" x2="168.001" y2="68.7026" gradientUnits="userSpaceOnUse">
<stop stop-color="#CBCBCB"/>
<stop offset="0.0484283" stop-color="#D8D8D8"/>
<stop offset="0.0683713" stop-color="#F1F1F1"/>
<stop offset="0.0897436" stop-color="#EFEFEF"/>
<stop offset="0.9377" stop-color="#F1F1F1"/>
</linearGradient>
<linearGradient id="paint29_linear_2_24124" x1="165.894" y1="65.33" x2="169.958" y2="72.39" gradientUnits="userSpaceOnUse">
<stop stop-color="#CBCBCB"/>
<stop offset="0.0484283" stop-color="#D8D8D8"/>
<stop offset="0.0683713" stop-color="#F1F1F1"/>
<stop offset="0.0897436" stop-color="#EFEFEF"/>
<stop offset="0.9377" stop-color="#F1F1F1"/>
</linearGradient>
<linearGradient id="paint30_linear_2_24124" x1="254.41" y1="10.2389" x2="255.939" y2="10.2389" gradientUnits="userSpaceOnUse">
<stop offset="0.0897436" stop-color="#EFEFEF"/>
<stop offset="0.9377" stop-color="#F1F1F1"/>
</linearGradient>
<linearGradient id="paint31_linear_2_24124" x1="66.859" y1="228.641" x2="69.118" y2="228.641" gradientUnits="userSpaceOnUse">
<stop stop-color="#CBCBCB"/>
<stop offset="0.151" stop-color="#D8D8D8"/>
<stop offset="0.1728" stop-color="#F1F1F1"/>
<stop offset="0.9377" stop-color="#F1F1F1"/>
<stop offset="0.9666" stop-color="#EAEAEA"/>
<stop offset="0.9915" stop-color="#E8E8E8"/>
<stop offset="1" stop-color="#DADADA"/>
</linearGradient>
<linearGradient id="paint32_linear_2_24124" x1="66.8589" y1="228.788" x2="69.1185" y2="228.788" gradientUnits="userSpaceOnUse">
<stop stop-color="#CBCBCB"/>
<stop offset="0.151" stop-color="#D8D8D8"/>
<stop offset="0.1728" stop-color="#F1F1F1"/>
<stop offset="0.9377" stop-color="#F1F1F1"/>
<stop offset="0.9666" stop-color="#EAEAEA"/>
<stop offset="0.9915" stop-color="#E8E8E8"/>
<stop offset="1" stop-color="#DADADA"/>
</linearGradient>
<linearGradient id="paint33_linear_2_24124" x1="161.382" y1="62.5163" x2="163.411" y2="66.0514" gradientUnits="userSpaceOnUse">
<stop stop-color="#CBCBCB"/>
<stop offset="0.0484283" stop-color="#D8D8D8"/>
<stop offset="0.0683713" stop-color="#F1F1F1"/>
<stop offset="0.0897436" stop-color="#EFEFEF"/>
<stop offset="0.9377" stop-color="#F1F1F1"/>
</linearGradient>
<linearGradient id="paint34_linear_2_24124" x1="161.304" y1="62.6788" x2="165.367" y2="69.7371" gradientUnits="userSpaceOnUse">
<stop stop-color="#CBCBCB"/>
<stop offset="0.0484283" stop-color="#D8D8D8"/>
<stop offset="0.0683713" stop-color="#F1F1F1"/>
<stop offset="0.0897436" stop-color="#EFEFEF"/>
<stop offset="0.9377" stop-color="#F1F1F1"/>
</linearGradient>
<linearGradient id="paint35_linear_2_24124" x1="64.819" y1="227.463" x2="67.078" y2="227.463" gradientUnits="userSpaceOnUse">
<stop stop-color="#CBCBCB"/>
<stop offset="0.151" stop-color="#D8D8D8"/>
<stop offset="0.1728" stop-color="#F1F1F1"/>
<stop offset="0.9377" stop-color="#F1F1F1"/>
<stop offset="0.9666" stop-color="#EAEAEA"/>
<stop offset="0.9915" stop-color="#E8E8E8"/>
<stop offset="1" stop-color="#DADADA"/>
</linearGradient>
<linearGradient id="paint36_linear_2_24124" x1="64.8185" y1="227.61" x2="67.0781" y2="227.61" gradientUnits="userSpaceOnUse">
<stop stop-color="#CBCBCB"/>
<stop offset="0.151" stop-color="#D8D8D8"/>
<stop offset="0.1728" stop-color="#F1F1F1"/>
<stop offset="0.9377" stop-color="#F1F1F1"/>
<stop offset="0.9666" stop-color="#EAEAEA"/>
<stop offset="0.9915" stop-color="#E8E8E8"/>
<stop offset="1" stop-color="#DADADA"/>
</linearGradient>
<linearGradient id="paint37_linear_2_24124" x1="159.342" y1="61.3387" x2="161.371" y2="64.8735" gradientUnits="userSpaceOnUse">
<stop stop-color="#CBCBCB"/>
<stop offset="0.0484283" stop-color="#D8D8D8"/>
<stop offset="0.0683713" stop-color="#F1F1F1"/>
<stop offset="0.0897436" stop-color="#EFEFEF"/>
<stop offset="0.9377" stop-color="#F1F1F1"/>
</linearGradient>
<linearGradient id="paint38_linear_2_24124" x1="159.264" y1="61.501" x2="163.327" y2="68.5592" gradientUnits="userSpaceOnUse">
<stop stop-color="#CBCBCB"/>
<stop offset="0.0484283" stop-color="#D8D8D8"/>
<stop offset="0.0683713" stop-color="#F1F1F1"/>
<stop offset="0.0897436" stop-color="#EFEFEF"/>
<stop offset="0.9377" stop-color="#F1F1F1"/>
</linearGradient>
<linearGradient id="paint39_linear_2_24124" x1="245.219" y1="136.416" x2="248.237" y2="136.416" gradientUnits="userSpaceOnUse">
<stop stop-color="#AEAEAE"/>
<stop offset="0.047619" stop-color="#CBCBCB"/>
<stop offset="0.8439" stop-color="#CDCDCD"/>
<stop offset="0.9421" stop-color="#F1F1F1"/>
<stop offset="1" stop-color="#CBCBCB"/>
</linearGradient>
<linearGradient id="paint40_linear_2_24124" x1="240.915" y1="136.409" x2="243.933" y2="136.409" gradientUnits="userSpaceOnUse">
<stop stop-color="#AEAEAE"/>
<stop offset="0.047619" stop-color="#CBCBCB"/>
<stop offset="0.8439" stop-color="#CDCDCD"/>
<stop offset="0.9421" stop-color="#F1F1F1"/>
<stop offset="1" stop-color="#CBCBCB"/>
</linearGradient>
<linearGradient id="paint41_linear_2_24124" x1="215.886" y1="237.026" x2="220.661" y2="245.298" gradientUnits="userSpaceOnUse">
<stop stop-color="#AEAEAE"/>
<stop offset="0.015873" stop-color="#CBCBCB"/>
<stop offset="0.2761" stop-color="#D8D8D8"/>
<stop offset="0.2913" stop-color="#F1F1F1"/>
<stop offset="0.3127" stop-color="#CBCBCB"/>
<stop offset="0.8651" stop-color="#F1F1F1"/>
<stop offset="0.9312" stop-color="#EAEAEA"/>
</linearGradient>
<linearGradient id="paint42_linear_2_24124" x1="218.038" y1="240.756" x2="222.804" y2="249.013" gradientUnits="userSpaceOnUse">
<stop stop-color="#AEAEAE"/>
<stop offset="0.015873" stop-color="#CBCBCB"/>
<stop offset="0.2761" stop-color="#D8D8D8"/>
<stop offset="0.2913" stop-color="#F1F1F1"/>
<stop offset="0.3127" stop-color="#CBCBCB"/>
<stop offset="0.8651" stop-color="#F1F1F1"/>
<stop offset="0.9312" stop-color="#EAEAEA"/>
</linearGradient>
<linearGradient id="paint43_linear_2_24124" x1="153.934" y1="185.096" x2="156.969" y2="185.096" gradientUnits="userSpaceOnUse">
<stop stop-color="#AEAEAE"/>
<stop offset="0.047619" stop-color="#CBCBCB"/>
<stop offset="0.8439" stop-color="#CDCDCD"/>
<stop offset="0.9421" stop-color="#F1F1F1"/>
<stop offset="1" stop-color="#CBCBCB"/>
</linearGradient>
<linearGradient id="paint44_linear_2_24124" x1="149.63" y1="185.089" x2="152.665" y2="185.089" gradientUnits="userSpaceOnUse">
<stop stop-color="#AEAEAE"/>
<stop offset="0.047619" stop-color="#CBCBCB"/>
<stop offset="0.8439" stop-color="#CDCDCD"/>
<stop offset="0.9421" stop-color="#F1F1F1"/>
<stop offset="1" stop-color="#CBCBCB"/>
</linearGradient>
<linearGradient id="paint45_linear_2_24124" x1="118.079" y1="296.318" x2="122.886" y2="304.646" gradientUnits="userSpaceOnUse">
<stop stop-color="#AEAEAE"/>
<stop offset="0.015873" stop-color="#CBCBCB"/>
<stop offset="0.2761" stop-color="#D8D8D8"/>
<stop offset="0.2913" stop-color="#F1F1F1"/>
<stop offset="0.3127" stop-color="#CBCBCB"/>
<stop offset="0.8651" stop-color="#F1F1F1"/>
<stop offset="0.9312" stop-color="#EAEAEA"/>
</linearGradient>
<linearGradient id="paint46_linear_2_24124" x1="120.231" y1="300.052" x2="125.024" y2="308.356" gradientUnits="userSpaceOnUse">
<stop stop-color="#AEAEAE"/>
<stop offset="0.015873" stop-color="#CBCBCB"/>
<stop offset="0.2761" stop-color="#D8D8D8"/>
<stop offset="0.2913" stop-color="#F1F1F1"/>
<stop offset="0.3127" stop-color="#CBCBCB"/>
<stop offset="0.8651" stop-color="#F1F1F1"/>
<stop offset="0.9312" stop-color="#EAEAEA"/>
</linearGradient>
<linearGradient id="paint47_linear_2_24124" x1="327.529" y1="176.613" x2="346.835" y2="176.613" gradientUnits="userSpaceOnUse">
<stop stop-color="#630000"/>
<stop offset="1" stop-color="#FF0000"/>
</linearGradient>
<linearGradient id="paint48_linear_2_24124" x1="311.842" y1="184.952" x2="362.521" y2="184.952" gradientUnits="userSpaceOnUse">
<stop stop-color="#FF6E6E"/>
<stop offset="1" stop-color="#C70000"/>
</linearGradient>
<linearGradient id="paint49_linear_2_24124" x1="6.76302" y1="180.231" x2="26.0694" y2="180.231" gradientUnits="userSpaceOnUse">
<stop stop-color="#630000"/>
<stop offset="1" stop-color="#FF0000"/>
</linearGradient>
<linearGradient id="paint50_linear_2_24124" x1="6.76302" y1="207.03" x2="26.0694" y2="207.03" gradientUnits="userSpaceOnUse">
<stop stop-color="#00AEFF"/>
<stop offset="1" stop-color="#0062FF"/>
</linearGradient>
<clipPath id="clip0_2_24124">
<rect width="366.1" height="338.8" fill="white" transform="translate(0 7)"/>
</clipPath>
<clipPath id="clip1_2_24124">
<rect width="28" height="44" fill="white" transform="translate(94 251)"/>
</clipPath>
</defs>
</svg>
