<?xml version="1.0" encoding="UTF-8"?>
<!DOCTYPE svg PUBLIC "-//W3C//DTD SVG 1.1//EN" "http://www.w3.org/Graphics/SVG/1.1/DTD/svg11.dtd">
<!-- Creator: CorelDRAW 2020 (64-Bit) -->
<svg xmlns="http://www.w3.org/2000/svg" xml:space="preserve" width="65mm" height="22mm" version="1.1" style="shape-rendering:geometricPrecision; text-rendering:geometricPrecision; image-rendering:optimizeQuality; fill-rule:evenodd; clip-rule:evenodd"
viewBox="0 0 6500 2200"
 xmlns:xlink="http://www.w3.org/1999/xlink"
 xmlns:xodm="http://www.corel.com/coreldraw/odm/2003">
 <defs>
  <style type="text/css">
   <![CDATA[
    .fil1 {fill:black}
    .fil0 {fill:#cf1c39}
   ]]>
  </style>
 </defs>
 <g id="Слой_x0020_1">
  <metadata id="CorelCorpID_0Corel-Layer"/>
  <polygon class="fil0" points="364.01,1826.64 50.03,1652.7 52.29,1650.44 52.29,204.75 400.16,204.75 400.16,1469.73 610.23,1589.45 610.23,204.75 958.1,204.75 958.1,1519.43 1071.05,1593.97 842.9,1824.38 610.23,1652.7 "/>
  <polygon class="fil0" points="1240.65,872.85 1700.36,872.85 1188.37,1524.75 1335.58,1785.42 2167.64,1782.24 2019.94,1509.89 1559.7,1509.89 2055.68,853.29 1908.43,596.75 1088.16,596.71 "/>
  <path class="fil1" d="M6439.67 231.79l0.23 20.34c-0.31,-3.92 -0.47,-7.89 -0.47,-11.92 0,-2.84 0.08,-5.65 0.24,-8.42zm-3186.97 106.24l-2.26 2.25 0 1070.72 -347.87 374.98 -210.07 0 0 185.23 -347.88 201.04 0 -386.27 -131.01 0 131.01 -250.74 0 -1330.49 347.88 0 0 133.28 248.47 -173.94 311.73 173.94zm-350.13 182.96l-210.07 -119.72 0 1068.46 210.07 0 0 -948.74zm804.17 1305.65l-295.92 -164.9 2.26 -2.26 0 -1454.73 327.54 0 0 1285.31 189.75 110.69 -223.63 225.89zm1052.64 -1124.93l4.52 808.68 137.8 103.91 -214.6 212.34 -151.35 -133.28 -182.97 126.5 -408.86 -182.97 -4.51 -835.79 411.11 -280.11 408.86 180.72zm-313.98 162.64l-194.27 -85.84 4.52 695.74 196.52 85.84 -6.77 -695.74zm524.06 -6.78l230.41 -264.29 576.02 0 -167.16 264.29 -334.32 6.78 0 259.77 72.29 38.4 149.08 -252.99 273.33 187.48 0 424.68 -230.41 264.29 -578.27 0 167.16 -264.29 336.57 -4.52 -2.26 -262.03 -72.28 -38.41 -149.09 253 -271.07 -185.23 0 -426.93zm971.33 804.17l2.26 -2.26 0 -824.5 -135.54 0 94.87 -241.7 40.67 0 0 -158.12 327.54 -230.41 0 388.53 171.67 0 -88.1 241.7 -83.57 0 0 655.08 142.31 110.69 -223.63 225.89 -248.48 -164.9z"/>
 </g>
</svg>
